<?xml version="1.0" encoding="UTF-8" standalone="no"?>
<!-- Created with Inkscape (http://www.inkscape.org/) -->

<svg
   version="1.1"
   id="svg1"
   width="435"
   height="394"
   viewBox="0 0 435 394"
   xmlns="http://www.w3.org/2000/svg"
   xmlns:svg="http://www.w3.org/2000/svg">
  <defs
     id="defs1" />
  <g
     id="g1">
    <path
       style="fill:#000000"
       d="m 0.5,346.42087 v -46.5 h 6.9026 6.9026 l 2.18791,7.25 c 3.60223,11.93655 6.6945,16.72093 12.50689,19.35074 10.91482,4.93839 16.75824,5.39926 68.45784,5.39926 H 145.5 v -4.34797 -4.34797 l -9.25,-2.2827 C 59.92441,302.1067 6.8935,235.8406 9.7899,162.92087 12.14696,103.5795 45.94626,53.196181 102.31471,24.997663 122.6104,14.84467 147.6353,7.1232038 172.5,3.3418958 186.79308,1.1682698 227.81185,0.31830278 243.17628,1.8773818 281.7877,5.7954108 319.55202,18.248965 346.5,35.950489 c 25.90407,17.015801 45.03195,38.038841 57.74872,63.470382 22.16629,44.329079 22.20436,94.486579 0.10449,137.657749 -13.33041,26.04042 -35.66286,48.99928 -62.85321,64.61619 -14.53841,8.35021 -35.04048,16.50814 -50.75,20.19382 l -5.25,1.23172 v 4.46244 4.46243 l 54.25,-0.36057 c 60.56544,-0.40255 60.44851,-0.39001 68.5876,-7.35676 4.5716,-3.91312 9.36543,-12.35634 11.23806,-19.79321 l 1.16177,-4.61381 h 6.88128 6.88129 v 46.5 46.5 H 343 251.5 l 0.0304,-4.75 c 0.051,-7.95323 3.78368,-83.40471 4.13827,-83.64857 0.18222,-0.12533 4.907,-1.70071 10.49951,-3.50086 17.59783,-5.6645 32.65953,-16.20919 44.85374,-31.40207 32.3634,-40.32185 42.9071,-103.58861 25.91055,-155.47447 C 326.22678,81.463275 308.59564,59.383221 280.25896,43.17078 259.80219,31.466724 228.67079,25.217143 204,27.861911 169.38723,31.572483 142.52974,44.676665 120.38953,68.656748 105.83785,84.417686 94.68135,108.35506 89.30049,135.36136 c -2.64627,13.28152 -3.16257,42.14814 -0.97583,54.55951 3.24957,18.44373 9.57394,37.9298 17.25651,53.16926 8.24672,16.35851 23.16009,34.55005 36.7838,44.86939 6.51112,4.93188 26.9959,15.96135 29.64464,15.96135 1.75211,0 2.0262,2.81667 4.47635,46 1.10781,19.525 2.19635,37.1875 2.41897,39.25 l 0.40476,3.75 H 89.90484 0.5 Z M 146.16667,256.2542 C 145.8,255.88754 145.5,254.11511 145.5,252.31548 c 0,-3.14904 0.17859,-3.29559 4.75,-3.89767 8.43358,-1.11076 10.10981,-1.59883 12.82422,-3.73398 6.00992,-4.7274 5.89717,-3.4378 6.23027,-71.26296 0.32011,-65.18014 -0.0246,-71.88404 -4.02971,-78.36441 -2.42951,-3.931027 -6.04851,-5.625772 -14.08044,-6.593741 L 145.38868,87.76305 145.69434,84.09196 146,80.420871 217.75,80.164252 289.5,79.907633 v 3.945346 3.945346 l -4.75,0.642229 c -11.21225,1.515965 -15.03576,4.522623 -17.38623,13.671836 -1.97514,7.68823 -1.99674,127.21074 -0.0242,133.74808 1.73951,5.76496 6.7044,10.72985 11.48153,11.48153 2.02338,0.31838 5.25387,0.82426 7.17887,1.12418 3.31806,0.51697 3.5,0.7509 3.5,4.5 v 3.95469 h -71.33333 c -39.23334,0 -71.63334,-0.3 -72,-0.66667 z m 85.89784,-10.43357 c 2.69103,-1.25701 4.71854,-3.16597 6,-5.64917 1.845,-3.57524 1.94913,-6.73326 2.22725,-67.54885 0.18738,-40.97282 -0.0785,-65.80122 -0.74316,-69.39664 -1.27198,-6.88079 -4.81276,-11.732928 -9.78756,-13.412476 -6.18223,-2.087189 -19.94095,-1.637559 -25.44004,0.831371 -5.63638,2.530565 -7.4433,5.605082 -8.79711,14.968445 -1.34952,9.33374 -1.31346,117.92964 0.0419,126.28382 1.21831,7.50924 3.73747,12.1229 7.65961,14.02805 6.69118,3.25018 21.77429,3.1955 28.83907,-0.10455 z"
       id="path1" />
  </g>
</svg>
