<?xml version="1.0" encoding="UTF-8" standalone="no"?>
<!-- Created with Inkscape (http://www.inkscape.org/) -->

<svg
   version="1.1"
   id="svg1"
   width="1015"
   height="1047"
   viewBox="0 0 1015 1047"
   xmlns="http://www.w3.org/2000/svg"
   xmlns:svg="http://www.w3.org/2000/svg">
  <defs
     id="defs1" />
  <g
     id="g1">
    <path
       style="fill:#000000"
       d="m 550.61699,1044.0066 c -5.90134,-4.4659 -9.68851,-5.4206 -14.13429,-3.563 -2.0376,0.8513 -4.30757,1.195 -5.07117,0.7676 -1.01172,-0.5662 1.55059,-3.6975 9.55638,-11.6784 l 10.93876,-10.9049 -7.70334,-3.3549 c -6.25036,-2.7221 -8.1366,-3.1585 -10.00039,-2.3135 -5.01389,2.2729 -5.69208,1.1265 -1.73242,-2.9285 l 3.87642,-3.9698 -1.11227,-12.54465 c -0.90836,-10.2449 -1.50625,-13.0455 -3.26134,-15.2768 l -2.14906,-2.7321 7.17085,-1.2006 c 9.2202,-1.5438 16.00636,-3.818 20.50791,-6.8729 1.97218,-1.3383 4.1105,-2.4333 4.75183,-2.4333 0.64134,0 3.96285,1.45 7.38114,3.2223 5.95196,3.086 6.29679,3.1484 8.14492,1.4759 1.06141,-0.9606 2.60847,-1.486 3.43791,-1.1678 1.13824,0.4368 1.66709,-0.4156 2.15644,-3.4759 0.56697,-3.5456 0.97802,-4.0545 3.27463,-4.0545 h 2.62628 l -0.66894,-6.5293 c -0.36791,-3.591 -0.90986,-7.7535 -1.20433,-9.25 -0.45411,-2.3077 0.1675,-3.3057 4.09452,-6.5737 2.54645,-2.1192 4.86226,-3.6207 5.14625,-3.3367 0.28398,0.284 1.37264,4.4928 2.41923,9.353 2.85353,13.2512 2.88058,13.3367 4.22094,13.3367 0.68517,0 2.97485,-0.9268 5.08819,-2.0595 2.11334,-1.1326 4.06989,-1.8319 4.34788,-1.5539 0.278,0.278 -0.0322,2.7464 -0.68922,5.4853 -1.13535,4.7327 -1.38919,5.0128 -5.11269,5.6419 -2.72387,0.4602 -3.91638,1.1685 -3.91263,2.3241 0.0114,3.5096 4.8104,28.3768 5.63086,29.1775 1.85924,1.8146 6.00182,2.1256 7.3104,0.5488 1.55369,-1.872 4.07124,-2.0694 4.00907,-0.3142 -0.0244,0.6875 -2.70592,4.10385 -5.95903,7.59195 l -5.91476,6.342 -5.55956,-2.6301 c -5.41538,-2.5619 -5.65136,-2.5865 -9.09933,-0.9504 -5.76004,2.7334 -6.3354,0.3696 -1.0438,-4.2883 l 4.50158,-3.96245 -2.42505,-14.9264 c -1.33378,-8.2095 -2.43197,-15.2638 -2.44041,-15.6763 -0.03,-1.4658 -3.78457,-0.7194 -6.28823,1.25 -1.39842,1.1 -2.94992,2 -3.44777,2 -0.49785,0 -2.15019,1.2995 -3.67187,2.8878 l -2.76669,2.8878 0.71822,15.0888 c 0.64339,13.51645 0.91348,15.15075 2.59202,15.68345 1.03059,0.3271 2.99321,2.2421 4.36138,4.2556 3.35597,4.9387 3.44241,12.4836 0.19818,17.2986 -2.52597,3.749 -23.7499,16.9031 -27.2106,16.8646 -1.1,-0.012 -3.74735,-1.3447 -5.883,-2.9609 z m 21.04185,-9.3741 c 4.99302,-3.3344 7.05752,-7.4246 5.35407,-10.6076 -0.635,-1.1865 -2.96998,-3.7974 -5.18883,-5.802 -2.21884,-2.0046 -4.44297,-4.7197 -4.94251,-6.0336 -0.87246,-2.2947 -1.37527,-1.9519 -12.76536,8.7028 -6.52142,6.1004 -12.4744,11.8353 -13.22883,12.7444 -1.23181,1.4842 -1.11753,1.5711 1.12045,0.8514 5.14005,-1.653 13.54604,-0.9182 18.61648,1.6272 2.68162,1.3462 5.32568,2.1882 5.87568,1.8712 0.55,-0.3171 2.87148,-1.8263 5.15885,-3.3538 z m -7.73441,-28.3817 c 2.06159,-1.6812 2.11903,-2.2503 1.46006,-14.46865 l -0.68595,-12.7186 -6.09928,-2.0247 c -4.98367,-1.6543 -6.78865,-1.8334 -9.86831,-0.9791 l -3.76904,1.0456 0.63516,8.1977 c 0.34933,4.5088 0.9204,10.6501 1.26904,13.6473 l 0.63388,5.44955 6.5,1.7038 c 3.575,0.937 6.78765,1.7472 7.13922,1.8004 0.35156,0.053 1.60492,-0.6908 2.78522,-1.6533 z m -55.23735,11.9453 c -1.55774,-1.626 -2.68709,-3.9375 -2.68709,-5.5 0,-1.4824 -0.28148,-2.6953 -0.62551,-2.6953 -0.34403,0 -5.03677,2.3069 -10.42831,5.1264 -11.02159,5.7638 -12.64512,5.8329 -18.39686,0.7828 -8.2602,-7.2526 -4.72756,-17.11055 8.37595,-23.37345 l 6.12462,-2.9273 -5.41122,-5.5542 c -6.49648,-6.6682 -7.89688,-9.1773 -7.03616,-12.6067 0.82215,-3.2757 4.35534,-4.7068 8.25989,-3.3457 3.29973,1.1503 4.45161,3.942 3.0968,7.5055 -1.10017,2.8936 -1.40543,2.8804 6.28682,0.2716 3.43969,-1.1666 7.6254,-3.4166 9.30159,-5 3.74173,-3.5347 6.03764,-3.6676 6.85847,-0.3971 0.34972,1.3934 2.00739,3.1977 3.77985,4.1143 2.93772,1.5192 3.35964,1.5128 6.0757,-0.092 2.11163,-1.2474 3.22103,-1.4219 4.01189,-0.631 0.60123,0.6012 0.89815,1.2476 0.65981,1.4364 -0.23833,0.1888 -2.50894,1.8031 -5.04581,3.5874 l -4.61247,3.2442 -0.70445,12.0436 c -0.67848,11.59935 -0.62149,12.13175 1.5454,14.43835 1.41471,1.5059 3.16382,2.2986 4.71204,2.1357 4.6272,-0.4871 3.33274,2.19 -3.00222,6.2088 -3.4792,2.2071 -6.80413,4.0173 -7.38873,4.0225 -0.5846,0.01 -2.2721,-1.2526 -3.75,-2.7952 z m -8.68709,-10.5094 5.5,-3.3059 0.29168,-10.93995 c 0.28726,-10.7742 0.25172,-10.9721 -2.34438,-13.0529 -2.69827,-2.1626 -4.47543,-2.0116 -14.38002,1.2225 -0.98278,0.3209 0.5751,2.4937 4.9606,6.9185 4.96475,5.0093 6.12578,6.7182 5.19597,7.648 -0.92982,0.9298 -1.72523,0.7015 -3.55976,-1.022 -2.69579,-2.5326 -5.43151,-1.9888 -9.52649,1.8935 -4.73416,4.48825 -0.78144,13.87785 5.8624,13.92595 1.375,0.01 4.975,-1.4695 8,-3.2877 z m -49,9.4505 c 0,-0.475 -1.21895,-2.0826 -2.70877,-3.5724 -2.29081,-2.2909 -3.40945,-2.6591 -7.25,-2.3864 -6.35602,0.4512 -6.08897,-2.0094 0.49409,-4.5526 l 5.03532,-1.9453 3.45893,-29.08985 c 1.90241,-15.9994 3.46151,-31.3009 3.46468,-34.0032 0.007,-5.8111 2.01087,-7.3047 3.61743,-2.6961 l 1.07053,3.0709 5.50056,-4.4807 c 3.02531,-2.4644 5.92344,-4.4807 6.44028,-4.4807 1.92384,0 1.96566,2.9112 0.0691,4.8078 -3.9749,3.9749 -5.88735,12.2024 -9.18319,39.5065 l -3.23671,26.81425 2.21695,2.3599 c 1.34682,1.4336 3.21298,2.2915 4.75468,2.1857 4.72242,-0.3241 3.30942,1.8762 -3.60229,5.6093 -6.72009,3.6297 -10.14156,4.5922 -10.14156,2.8529 z m -61.56775,-14.0968 c -4.01933,-5.27055 -5.62619,-6.13755 -9.10479,-4.91285 -1.43308,0.5045 -2.5674,0.2891 -3.33265,-0.633 -1.15737,-1.3945 1.05215,-2.7869 7.84229,-4.942 1.1896,-0.3776 2.17068,-0.9937 2.18018,-1.3691 0.01,-0.3755 1.28505,-6.1319 2.83454,-12.7921 2.36713,-10.1748 2.59322,-12.2518 1.41505,-13 -2.18798,-1.3896 -0.46737,-4.655 2.11867,-4.0208 5.95977,1.4613 12.46589,1.6322 16.46767,0.4324 l 4.35321,-1.3051 -8.59052,-12.9985 c -4.72479,-7.1492 -8.59624,-13.5519 -8.60321,-14.2282 -0.0102,-0.9915 6.74419,-5.2703 8.31947,-5.2703 0.22651,0 6.80204,9.6685 14.61229,21.4857 7.81025,11.8172 14.58009,21.7204 15.04409,22.0072 0.46399,0.2867 1.97153,0.093 3.35008,-0.4316 1.87904,-0.7144 2.81184,-0.585 3.72642,0.517 1.49382,1.8 1.45509,1.84 -4.08553,4.2209 l -4.47951,1.925 -3.26911,12.1208 c -2.71372,10.0616 -3.05994,12.45585 -2.03786,14.09245 1.86895,2.9926 0.32632,3.5699 -6.03092,2.2569 -7.58343,-1.5664 -13.32067,-1.4871 -20.66211,0.2856 -3.3,0.7968 -6.5141,1.4648 -7.14244,1.4844 -0.62834,0.02 -2.84473,-2.1966 -4.92531,-4.9248 z m 29.74741,-15.28955 3.41562,-14.25 -3.02499,-4.6389 c -2.67537,-4.1026 -3.2952,-4.536 -5.36274,-3.75 -1.28576,0.4889 -4.09111,0.8889 -6.23411,0.8889 -4.42037,0 -3.83014,-1.2766 -8.05852,17.4296 l -2.24451,9.9297 4.9148,4.2998 c 4.07378,3.56395 5.62185,4.30325 9.04681,4.32025 l 4.13202,0.021 z m -60.51218,9.435 c -4.15629,-4.5926 -4.07311,-7.0473 0.76709,-22.6366 4.27838,-13.7799 4.46438,-14.8432 3.06872,-17.5421 l -1.48572,-2.873 -8.25469,3.0125 c -4.54008,1.657 -8.37384,3.1318 -8.51946,3.2774 -0.14563,0.1456 -1.60817,4.239 -3.25008,9.0965 -2.82421,8.3551 -2.89345,8.9332 -1.28307,10.7126 1.11227,1.229 2.47596,1.6867 3.93469,1.3206 2.36542,-0.5937 4.17124,1.044 2.71791,2.4649 -0.47458,0.464 -4.42546,1.887 -8.77973,3.1623 -6.12792,1.7948 -8.01375,2.028 -8.34565,1.0323 -0.23583,-0.7075 -1.57066,-2.6434 -2.96627,-4.302 -2.18126,-2.5922 -3.11545,-2.9731 -6.65436,-2.713 -6.28676,0.462 -5.34223,-2.1223 1.62438,-4.4445 l 5.74124,-1.9138 3.86012,-12.0975 c 3.68964,-11.5632 3.7894,-12.2237 2.25876,-14.9534 -1.05915,-1.889 -2.19643,-2.7062 -3.35886,-2.4138 -1.01873,0.2564 -2.36578,-0.4262 -3.20459,-1.6238 -1.23703,-1.7661 -1.9255,-1.9292 -4.74251,-1.1233 -2.84969,0.8151 -4.05597,2.3388 -8.91876,11.2653 -5.28243,9.6968 -5.55746,10.5374 -4.53634,13.8645 0.59786,1.948 1.89088,3.7521 2.87336,4.009 0.98249,0.2569 1.78634,1.0573 1.78634,1.7785 0,0.8541 -2.00546,1.5395 -5.75,1.9653 -3.1625,0.3596 -6.462,0.8484 -7.33222,1.0861 -3.17404,0.8671 -5.41778,-3.3395 -5.41778,-10.1573 0,-5.8176 -0.16808,-6.3179 -2,-5.9527 -1.1,0.2193 -6.3755,0.6759 -11.72332,1.0147 l -9.72333,0.616 -3.11425,-5.0613 c -3.16691,-5.1469 -6.02767,-6.7886 -10.01337,-5.7463 -1.52171,0.398 -1.96129,0.108 -1.72478,-1.1375 0.23208,-1.2223 1.95606,-1.9054 6.41298,-2.5412 l 6.09558,-0.8696 6.5248,-11.5767 c 5.77207,-10.2412 6.41204,-11.9002 5.54742,-14.3804 -0.70968,-2.0358 -1.64391,-2.8037 -3.41094,-2.8037 -1.33846,0 -2.69258,-0.675 -3.00916,-1.5 -0.42321,-1.1029 -2.20209,-1.5085 -6.71862,-1.5318 -6.70962,-0.035 -9.01662,-1.1905 -10.57894,-5.2997 -0.77399,-2.0358 -1.69506,-2.6685 -3.88433,-2.6685 -3.36374,0 -4.18518,0.8745 -10.86695,11.5694 l -5.04149,8.0694 1.88824,3.6806 c 1.62771,3.1727 2.36786,3.6806 5.36435,3.6806 4.44566,0 4.70616,2.5039 0.35111,3.375 -5.46362,1.0927 -15.56424,0.7119 -16.57747,-0.625 -0.52105,-0.6875 -1.47464,-3.05 -2.11909,-5.25 -1.73244,-5.9142 -2.58497,-6.7854 -7.26204,-7.4215 -6.85118,-0.9318 -5.86248,-2.7269 1.92454,-3.4942 l 6.91891,-0.6818 6.70812,-10.0752 c 5.93598,-8.9155 6.63521,-10.4638 6.07476,-13.4513 -0.50582,-2.6962 -1.10612,-3.376 -2.98105,-3.376 -1.94152,0 -3.56168,-1.6294 -3.56168,-3.5818 0,-0.23 4.02243,-0.4182 8.93873,-0.4182 h 8.93872 l 0.67973,4.5327 c 0.37385,2.493 0.42159,5.8234 0.1061,7.4008 l -0.57362,2.8682 6.20517,-1.4461 c 3.41284,-0.7953 7.17182,-1.688 8.35328,-1.9837 1.85853,-0.4651 2.23906,8e-4 2.82285,3.4562 0.37111,2.1965 1.54196,4.7786 2.60189,5.7378 1.05993,0.9592 1.92715,2.4025 1.92715,3.2073 0,1.2226 1.36777,1.3494 8.31579,0.7706 9.37227,-0.7807 10.36648,-0.2766 11.34475,5.7517 0.4788,2.9506 -0.54571,5.591 -6.79839,17.5213 l -7.36215,14.0471 1.93385,3.617 1.93385,3.617 5.56615,-0.6309 c 3.06138,-0.347 6.31789,-0.838 7.23669,-1.0911 0.9188,-0.2532 3.7627,-4.5111 6.3198,-9.4621 3.67388,-7.1133 4.51304,-9.622 4,-11.9578 -0.50841,-2.3148 -1.19241,-2.956 -3.15313,-2.956 -5.20705,0 -1.47254,-2.5362 5.61283,-3.8117 8.23017,-1.4817 10.04996,-1.1504 10.04996,1.8299 0,1.1446 0.68656,3.4087 1.52568,5.0314 1.30123,2.5163 2.11037,2.9504 5.5,2.9504 2.80027,0 3.97432,0.4272 3.97432,1.4461 0,1.2043 0.93682,1.1238 5.60128,-0.481 3.93322,-1.3532 6.13538,-1.6413 7.39481,-0.9672 3.37847,1.8081 5.17773,10.9402 2.96873,15.0678 -0.56935,1.0638 -0.68185,1.9292 -0.25,1.9231 0.43185,-0.01 5.65265,-1.8061 11.60177,-4 13.40707,-4.9441 15.12652,-5.0251 16.60572,-0.7819 0.61488,1.7639 2.05142,4.2006 3.19232,5.4151 1.78791,1.9031 2.49043,2.063 5.08725,1.1577 2.35205,-0.8199 3.20313,-0.7464 3.88019,0.335 0.97393,1.5556 -0.1479,2.1975 -6.7604,3.8681 l -4.17832,1.0556 -3.08925,9.9437 c -4.09723,13.1881 -4.4703,15.3717 -3.0725,17.9835 0.90002,1.6817 1.76067,2.0649 3.60057,1.6031 1.92883,-0.4841 2.41783,-0.2182 2.41783,1.3148 0,1.5075 -1.48815,2.3737 -6.90524,4.0191 -8.29571,2.5197 -7.42615,2.4936 -9.42728,0.2824 z m 309.614,-2.9702 c -0.87278,-0.5687 0.43269,-3.275 4.60104,-9.5383 l 5.81956,-8.7444 -8.88731,-21.7161 c -10.97633,-26.8205 -12.76339,-28.6463 -18.81228,-19.2199 -2.89146,4.5059 -5.00249,5.6921 -5.00249,2.8109 0,-0.5912 2.5875,-5.2873 5.75,-10.4358 5.37656,-8.7529 5.96402,-9.3612 9.04545,-9.3661 6.37707,-0.01 8.18409,2.9838 20.21698,33.4949 4.55507,11.55 8.32821,21.0505 8.38476,21.1124 0.0565,0.062 2.00219,0.3547 4.32366,0.6509 4.1047,0.5237 4.29733,0.4175 7,-3.8606 2.52792,-4.0015 5.27915,-5.8085 5.27915,-3.4675 0,0.5145 -2.8125,5.127 -6.25,10.25 -6.85227,10.2124 -6.82703,10.1994 -16.46369,8.4265 -4.57579,-0.8419 -5.6357,-0.1699 -11.28631,7.156 -1.60171,2.0765 -2.93783,2.9558 -3.71852,2.4471 z m 54.75174,-28.9058 c 0.0458,-3.8751 4.70932,-10.2368 9.20928,-12.5629 2.05838,-1.0639 6.47839,-2.1825 9.82225,-2.4857 4.91796,-0.446 6.37175,-0.997 7.6079,-2.8836 1.43621,-2.1919 1.26639,-2.8447 -2.82224,-10.8486 -7.3337,-14.3564 -6.60354,-14.1369 -12.83641,-3.8591 -2.94546,4.857 -5.54213,9.0559 -5.77036,9.3309 -0.22824,0.275 -2.06393,0.5472 -4.07931,0.6048 -2.01538,0.058 -5.99651,0.1702 -8.84694,0.25 -4.23219,0.1185 -5.29902,0.5119 -5.81739,2.1452 -0.64904,2.0449 -3.5,2.8333 -3.5,0.9678 0,-0.5676 0.66433,-2.6221 1.4763,-4.5654 1.45149,-3.4739 1.39159,-3.702 -3.56457,-13.5783 -3.23379,-6.4441 -5.7347,-10.2266 -6.9763,-10.5513 -2.45886,-0.643 -2.52535,-3.9508 -0.0949,-4.7222 2.77432,-0.8806 12.4914,-10.7402 16.15111,-16.3881 l 3.2314,-4.9869 10.46023,-0.3378 c 8.69951,-0.281 10.62484,-0.6324 11.43818,-2.0878 0.53787,-0.9625 1.68307,-1.75 2.54489,-1.75 1.64704,0 1.54494,0.9204 -0.72747,6.5584 -1.17821,2.9232 -0.76795,3.9181 9.27797,22.5 8.06539,14.9185 11.00769,19.5159 12.64694,19.7611 1.17493,0.1758 2.13624,0.7162 2.13624,1.2009 0,0.4847 -2.8125,3.7159 -6.25,7.1804 -3.4375,3.4645 -8.07673,9.2242 -10.3094,12.7992 -2.23267,3.575 -4.62123,6.3788 -5.30791,6.2307 -4.73905,-1.0223 -11.52954,-0.3163 -13.95805,1.4511 -4.93976,3.5949 -5.17686,3.6238 -5.14142,0.6272 z m 6.01255,-35.309 c 0.97659,0 3.3886,-2.2577 5.39361,-5.0486 l 3.627,-5.0485 -4.78319,-9.0442 -4.78319,-9.0442 -7.89623,0.5082 c -7.09445,0.4566 -8.19893,0.8109 -10.8773,3.4892 l -2.98106,2.9811 5.8773,11.1858 5.87729,11.1857 4.38957,-0.5823 c 2.41427,-0.3202 5.18455,-0.5822 6.1562,-0.5822 z m 57.49173,6.0606 c -0.3193,-0.5166 1.05377,-5.0226 3.05126,-10.0133 l 3.63179,-9.074 -11.27428,-15.7367 c -16.30462,-22.758 -17.57841,-24.2366 -20.8793,-24.2366 -2.45311,0 -3.04323,0.6424 -4.7738,5.1969 -1.86228,4.9011 -4.31678,7.5641 -4.27343,4.6364 0.0109,-0.7333 1.50131,-6.0583 3.31212,-11.8333 l 3.29237,-10.5 3.63569,-0.3073 c 2.22497,-0.188 4.6649,0.3671 6.28818,1.4307 1.45887,0.9559 9.86485,11.3317 18.67997,23.0573 15.7618,20.9659 16.08822,21.3193 19.69261,21.3193 3.54933,0 3.72423,-0.1738 5.53466,-5.5 1.02823,-3.025 2.47141,-5.5 3.20708,-5.5 0.73567,0 1.33758,0.4921 1.33758,1.0937 0,2.4126 -6.35718,21.4555 -7.39141,22.1409 -0.60972,0.4041 -3.22492,0.7416 -5.81154,0.75 -7.08678,0.023 -9.38419,1.53 -12.44695,8.1642 -2.65525,5.7514 -3.65996,6.7768 -4.8126,4.9118 z m -590.5375,-27.6009 c -13.97131,-3.8798 -25.81401,-12.439 -33.83944,-24.4572 -6.71111,-10.0499 -10.14345,-28.57 -7.06174,-38.1033 4.45357,-13.7773 16.35337,-24.4591 31.01296,-27.8387 9.12554,-2.1038 31.73361,-0.7378 33.43824,2.0204 1.22084,1.9754 -0.65273,2.6834 -4.69651,1.7748 -5.51751,-1.2397 -13.6876,0.4663 -21.17127,4.4209 -12.13387,6.4118 -26.3461,22.6507 -30.21852,34.5276 -2.26795,6.956 -1.46888,13.5299 2.56438,21.0971 2.84343,5.3348 9.45739,13.0707 10.28549,12.0303 0.18896,-0.2374 6.2707,-7.278 13.51498,-15.6459 7.24429,-8.3678 13.17143,-15.4757 13.17143,-15.7953 0,-0.3196 -1.65954,-0.2697 -3.68786,0.1108 -2.37866,0.4462 -4.58534,1.7936 -6.21596,3.7953 -1.39045,1.7069 -4.3967,5.016 -6.68056,7.3535 -3.7668,3.8552 -4.60584,4.2494 -9.03404,4.2444 -7.42924,-0.01 -12.38158,-1.6678 -12.38158,-4.1484 0,-1.4275 0.46424,-1.8819 1.51185,-1.4799 3.13099,1.2015 7.00222,-2.2078 21.34837,-18.8007 8.11506,-9.386 15.08583,-17.6166 15.49059,-18.2901 0.50823,-0.8458 -0.6698,-1.5787 -3.80744,-2.3687 -4.46971,-1.1255 -5.54288,-2.1709 -3.51515,-3.4241 1.36924,-0.8462 44.12181,4.5833 45.72178,5.8066 0.6875,0.5257 1.25,2.0357 1.25,3.3556 0,1.426 1.69077,4.2342 4.16604,6.9196 3.2686,3.546 5.4228,4.869 10,6.1416 6.22345,1.7302 7.59132,3.7982 3.08396,4.6624 -1.5125,0.2899 -11.75,1.2886 -22.75,2.2191 l -20,1.6919 4.68406,4.9038 c 6.12726,6.4146 8.13858,12.3754 7.66851,22.7267 -0.33326,7.3383 -0.57344,8.0435 -4.28011,12.567 -2.23365,2.7259 -5.75088,5.5992 -8.15662,6.6634 -5.94369,2.6292 -14.74639,3.1715 -21.41584,1.3195 z m 4.25,-7.6111 c 0.9625,-0.5054 1.75,-1.3519 1.75,-1.8809 0,-1.7396 -6.74587,-8.4283 -10.52801,-10.4387 l -3.70785,-1.971 -2.45108,2.971 c -6.62195,8.0265 -6.57762,8.5616 0.96655,11.668 4.27201,1.759 10.24102,1.6102 13.97039,-0.3484 z m 13.95936,-9.2487 c 1.49015,-1.7049 2.72765,-3.5941 2.75,-4.1981 0.0223,-0.6039 -1.79257,-1.9248 -4.03316,-2.9351 -2.24059,-1.0104 -6.02183,-4.0037 -8.40276,-6.6519 -2.38093,-2.6482 -4.55944,-4.8148 -4.84113,-4.8148 -0.2817,0 -2.35716,2.3172 -4.61214,5.1493 l -4.09996,5.1493 5.02101,3.3814 c 2.76156,1.8597 6.20887,5.1763 7.66068,7.3701 2.61994,3.959 2.65913,3.9764 5.24388,2.3193 1.43232,-0.9182 3.82343,-3.0645 5.31358,-4.7695 z m 7.7552,-15.6155 c 0.0499,-4.9515 -3.01133,-10.1089 -7.51996,-12.6691 -2.11596,-1.2015 -4.17375,-1.9827 -4.57286,-1.7361 -0.39912,0.2467 -2.09485,2.1772 -3.7683,4.2902 l -3.04264,3.8416 3.68129,4.3007 c 2.0247,2.3655 5.70552,5.5845 8.17959,7.1535 l 4.49831,2.8528 1.25457,-2.259 c 0.69001,-1.2425 1.27052,-3.8411 1.29,-5.7746 z m -9.23022,-24.2159 c 3.93836,-3.8894 5.5353,-4.8989 6.39298,-4.0412 0.85767,0.8576 0.30708,2.199 -2.20416,5.3697 l -3.3474,4.2264 3.96212,-0.608 c 2.17917,-0.3345 8.46212,-0.9145 13.96212,-1.2889 5.5,-0.3744 10.56307,-0.9793 11.25126,-1.3441 0.76846,-0.4074 -0.86316,-1.734 -4.22873,-3.4381 -5.9734,-3.0246 -8.79521,-5.991 -10.69387,-11.2416 -1.08804,-3.009 -1.64543,-3.4027 -4.81635,-3.4027 -3.28369,0 -4.29924,0.8148 -12.04912,9.6678 -10.9868,12.5506 -11.13979,12.8175 -6.8556,11.9606 2.16685,-0.4333 5.25831,-2.5333 8.62675,-5.8599 z m 620.96443,45.5969 c -1.15013,-1.1501 -0.7934,-5.8947 0.71457,-9.5038 2.62633,-6.2857 8.20039,-10.7844 15.2394,-12.2993 2.20657,-0.4749 3.5151,-1.5533 4.36015,-3.5935 1.17281,-2.8314 0.96981,-3.1748 -7.08638,-11.9894 -5.53222,-6.053 -8.51309,-8.6425 -8.95243,-7.777 -0.36226,0.7137 -1.91707,5.6441 -3.45513,10.9564 l -2.79648,9.6589 -4.61124,1.195 c -9.52446,2.4681 -11.37069,3.2634 -11.85252,5.1059 -0.27058,1.0348 -1.14206,1.8814 -1.93661,1.8814 -1.13738,0 -1.30635,-0.9223 -0.79443,-4.336 l 0.65022,-4.336 -8.80663,-8.164 c -4.84365,-4.4902 -9.60867,-8.164 -10.58894,-8.164 -2.56468,0 -2.2119,-1.3304 1.36415,-5.1443 3.25622,-3.4728 7.25732,-11.4967 10.27501,-20.6057 1.46524,-4.4229 2.1235,-5.25 4.1782,-5.25 3.95338,0 16.65202,-5.3173 17.14908,-7.1809 0.40019,-1.5004 3.08909,-3.3146 3.82375,-2.58 0.15744,0.1575 -0.18087,2.4765 -0.7518,5.1534 l -1.03805,4.8671 15.84695,15.8702 c 11.1283,11.1446 16.52041,15.8702 18.10867,15.8702 2.56513,0 2.92017,1.5936 0.87362,3.9212 -2.78904,3.1721 -6.63541,11.8156 -8.46643,19.0257 l -1.87683,7.3905 -4.88432,1.2871 c -2.68638,0.708 -5.27381,1.307 -5.74984,1.3313 -0.47604,0.024 -2.52409,1.8586 -4.55123,4.0763 -2.02714,2.2176 -4.00016,3.7176 -4.38448,3.3333 z m -2.13343,-38.6489 c 0.0908,-0.1191 0.95492,-2.6334 1.92035,-5.5874 l 1.75533,-5.3709 -7.11593,-7.1159 -7.11594,-7.116 -7.25458,2.4869 c -6.28719,2.1551 -7.52098,2.9843 -9.25243,6.218 l -1.99786,3.7312 8.89825,8.9396 8.89826,8.9397 5.54976,-2.4544 c 3.05237,-1.3499 5.62402,-2.5518 5.71479,-2.6708 z m -352.56534,20.2893 c -29.37168,-2.9453 -49.26217,-6.6803 -76.57039,-14.3784 -25.91821,-7.3062 -57.18204,-20.816 -81.72113,-35.3134 -70.71645,-41.7784 -124.63476,-102.9759 -155.56959,-176.57217 -14.01532,-33.34347 -21.73849,-62.39323 -27.31496,-102.74187 -1.78971,-12.94951 -1.78971,-71.05049 0,-84 5.55749,-40.21126 12.81594,-67.66617 26.7626,-101.22889 11.12671,-26.7765 18.35609,-40.30962 33.66305,-63.01591 52.81321,-78.34296 130.60014,-132.88018 221.25042,-155.12093 28.65234,-7.02976 48.4976,-9.6065 79.5,-10.32239 37.54106,-0.86687 66.14072,2.21221 99.5,10.71231 60.06864,15.30577 109.44067,41.34794 156.5,82.54878 66.38272,58.11862 110.91064,141.829 122.49124,230.27775 4.98177,38.04909 3.69808,81.03864 -3.54293,118.64928 -6.79714,35.30515 -21.88489,76.85085 -39.49194,108.74516 -25.48656,46.16768 -60.83395,86.61958 -103.95637,118.96878 -51.52856,38.6552 -113.33065,63.2881 -179,71.3453 -14.99978,1.8403 -59.68236,2.7319 -72.5,1.4466 z m 60,-19.5277 c 19.08164,-1.7505 31.03156,-3.559 46.48406,-7.0348 86.35235,-19.4239 164.17202,-72.5089 214.6778,-146.4433 33.03353,-48.35718 53.49638,-104.01729 59.37377,-161.50004 4.40935,-43.12487 0.21206,-92.65084 -11.1731,-131.83702 -18.57443,-63.9307 -52.03338,-118.21797 -100.86253,-163.64983 -49.51936,-46.07405 -110.12681,-76.34584 -178,-88.90623 -28.86749,-5.34212 -72.31542,-6.4501 -104.29409,-2.65965 -67.20369,7.96571 -134.51304,37.75663 -186.70591,82.63549 -19.23206,16.537 -43.86994,43.31995 -57.36802,62.36271 -15.89104,22.41869 -35.45849,58.6675 -43.48412,80.55453 -15.39821,41.99313 -22.64786,82.00604 -22.64786,125 0,152.80652 99.04195,288.47534 245.19864,335.87594 44.45101,14.4161 92.66055,19.8352 138.80136,15.6022 z m -46,-125.9781 v -71.50004 h -21.5 -21.5 v -12.5 -12.5 h 58 58 v 12.5 12.5 h -21.5 -21.5 v 71.50004 71.5 h -15 -15 z m -148.8615,46.75 c -1.76813,-4.4038 -52.1385,-142.41022 -52.1385,-142.85087 0,-0.21954 6.68961,-0.39917 14.8658,-0.39917 h 14.8658 l 38.80103,39.75 c 21.34057,21.8625 42.11154,43.12504 46.15771,47.25004 l 7.35669,7.5 -1.92784,-5.5 c -1.06032,-3.025 -8.7209,-24.1121 -17.02352,-46.86012 -8.30262,-22.74805 -15.09567,-41.5479 -15.09567,-41.77746 0,-0.22956 6.38048,-0.29252 14.17885,-0.13992 l 14.17884,0.27746 25.82981,71.00004 c 14.20639,39.05 26.08123,71.7875 26.38854,72.75 0.51572,1.6152 -0.63104,1.75 -14.89653,1.75 h -15.45527 l -44.80016,-46 c -24.64009,-25.3 -44.9369,-46.00004 -45.10402,-46.00004 -0.16713,0 0.35638,1.6875 1.16336,3.75 0.80697,2.0625 8.40085,22.76254 16.87529,46.00004 l 15.40806,42.25 h -14.26207 -14.26206 z m 211.78234,-8 c 4.18273,-11.6449 47.51548,-130.62656 48.62029,-133.50004 0.59911,-1.55821 2.30503,-1.75 15.56586,-1.75 9.20826,0 14.89301,0.37965 14.89301,0.99462 0,0.76965 -16.13963,45.61016 -19.53404,54.27115 -0.65298,1.66611 0.90463,1.75076 27.60035,1.5 l 28.29239,-0.26577 10.13169,-28 10.13169,-28 15.18896,-0.27605 c 8.35393,-0.15182 15.18223,0.0732 15.174,0.5 -0.008,0.42683 -11.83573,33.17605 -26.28334,72.77609 l -26.26836,72 -15.21667,0.276 c -8.36917,0.1518 -15.21667,0.076 -15.21667,-0.1676 0,-0.3902 20.72558,-57.3135 22.52817,-61.8742 0.65857,-1.6662 -0.89695,-1.7508 -27.59586,-1.5 l -28.29377,0.2658 -11.54177,31.75 -11.54176,31.75 H 567.30727 552.05954 Z M 289.99999,562.00081 v -47 h 7.84087 7.84087 l 1.19188,5.25 c 0.65553,2.8875 2.63964,8.175 4.40913,11.75 3.76153,7.59964 7.24171,9.99812 18.04823,12.43854 5.76538,1.30199 15.20253,1.56146 56.79169,1.56146 h 49.87733 v -3.79992 -3.79993 l -6.25,-1.26489 c -16.11001,-3.2604 -40.48844,-13.27806 -55.47604,-22.79637 -49.40836,-31.37822 -78.26943,-86.19773 -74.18593,-140.91079 3.62042,-48.5084 27.16454,-90.06678 67.41197,-118.99071 11.54896,-8.29969 37.61285,-21.25244 53,-26.33895 27.27994,-9.01789 50.59084,-12.41949 85,-12.40348 33.75875,0.0157 56.79394,3.42567 83.72069,12.39342 32.16056,10.71082 54.81446,24.21358 76.18816,45.41162 12.55386,12.45069 21.85008,25.02683 28.94099,39.15206 23.27484,46.36392 23.28953,96.46037 0.0415,141.34794 -14.726,28.43308 -41.65239,53.88784 -73.1431,69.14553 -10.46952,5.07263 -33.88256,13.29265 -41.18936,14.46105 -3.93462,0.62917 -4.05888,0.76759 -4.05888,4.52123 v 3.87219 h 53.3185 c 46.12319,0 54.05148,-0.2175 58.75,-1.6117 5.77149,-1.71259 10.29645,-4.38278 13.21708,-7.79945 2.7761,-3.2476 6.90779,-11.62348 8.18301,-16.58885 l 1.15571,-4.5 7.18785,-0.29381 7.18785,-0.29381 v 47.04381 47.04381 h -92.0879 -92.0879 l 0.54534,-3.75 c 0.29993,-2.0625 1.32773,-22.24831 2.28399,-44.85736 l 1.73865,-41.10735 7.55391,-2.20867 c 38.84258,-11.3571 67.6076,-47.89658 78.66608,-99.92757 1.85315,-8.71925 2.61896,-16.0504 3.0449,-29.14905 0.67334,-20.70723 -0.95722,-35.69543 -5.71743,-52.55482 -3.59975,-12.74931 -12.93325,-32.86036 -19.64521,-42.32983 -20.64544,-29.12731 -53.00586,-46.56987 -92.81155,-50.02627 -26.84135,-2.33068 -58.40163,5.5334 -80.50661,20.06036 -25.99844,17.08565 -41.96043,38.91794 -51.43461,70.35056 -9.28224,30.7958 -9.43751,61.30358 -0.47021,92.38928 7.74882,26.86177 18.88008,46.89266 35.73098,64.29851 12.5284,12.94098 28.20041,23.46032 41.24614,27.68516 l 3.54856,1.1492 2.25734,38.73892 c 1.24153,21.30641 2.51932,41.55143 2.83953,44.98893 l 0.58219,6.25 h -90.1381 -90.13809 z m -56,-83.5 v -25.5 h -25 -25 v -6.5 -6.5 h 25 25 v -25 -25 h 6.5 6.5 v 25 25 h 25.5 25.5 v 6.5 6.5 h -25.5 -25.5 v 25.5 25.5 h -6.5 -6.5 z m 536.3736,18.51456 c -2.55943,-1.03353 -5.99159,-5.64431 -6.90219,-9.27245 -0.94276,-3.75623 1.16162,-9.25554 4.67207,-12.20938 2.31595,-1.94875 4.12874,-2.53273 7.86204,-2.53273 4.13549,0 5.37949,0.49742 8.42328,3.36808 3.25165,3.0667 3.5712,3.85895 3.5712,8.85397 0,4.44285 -0.46805,5.99094 -2.46169,8.14211 -3.97777,4.29209 -9.99106,5.73958 -15.16471,3.6504 z m -334.3736,-29.37765 v -4.36309 l 6.38517,-0.51254 c 12.38078,-0.99381 15.21686,-4.58809 16.73611,-21.21035 1.36248,-14.90715 0.59272,-119.41574 -0.92051,-124.97354 -2.22575,-8.17478 -6.87121,-11.6731 -16.45077,-12.38841 l -5.75,-0.42936 v -4.37981 -4.37981 h 72 72 v 4.5 4.5 l -4.75,0.022 c -7.57848,0.035 -12.92439,3.02679 -15.54315,8.69847 -2.20523,4.77606 -2.20685,4.828 -2.20685,70.77957 0,65.54267 0.015,66.03242 2.16236,70.679 2.60633,5.63967 6.30649,7.82648 14.49979,8.56942 l 5.83785,0.52932 v 4.36111 4.36111 h -72 -72 z m 86.83764,-7.0088 c 2.1949,-1.16406 4.07798,-3.37209 5.5,-6.44911 2.13128,-4.61176 2.16661,-5.56282 2.45827,-66.179 0.3267,-67.90069 0.0196,-72.86261 -4.85246,-78.41163 -3.59517,-4.09467 -8.56608,-5.58837 -18.59758,-5.58837 -6.22679,0 -8.87692,0.48149 -12.38398,2.25 -6.26687,3.1602 -7.81256,6.87468 -9.09068,21.846 -1.48321,17.37356 -0.60815,117.01948 1.0749,122.404 1.75215,5.60556 5.32275,9.97236 9.2278,11.28546 5.16804,1.7378 22.63426,0.97967 26.66373,-1.15735 z m 196.16236,-14.12811 v -6.5 h 56.5 56.5 v 6.5 6.5 h -56.5 -56.5 z m 50.41996,-28.38568 c -7.1275,-4.34634 -8.04387,-13.69041 -1.94109,-19.79319 2.90993,-2.90993 3.96495,-3.32113 8.52113,-3.32113 4.58039,0 5.60513,0.40513 8.6,3.4 3.03547,3.03547 3.4,3.98475 3.4,8.85398 0,4.40893 -0.47169,5.96294 -2.46169,8.11018 -4.52309,4.8805 -10.85356,5.96062 -16.11835,2.75016 z M 16.249984,560.88203 c -1.7875,-0.51612 -3.25,-1.07172 -3.25,-1.23466 0,-0.16294 1.125,-3.60389 2.5,-7.64656 1.375,-4.04267 2.5,-7.66991 2.5,-8.06053 0,-0.39063 -3.644617,0.20506 -8.0991476,1.32374 -9.29816795,2.33509 -9.85999095,2.05231 -9.88553885,-4.97568 l -0.015313,-4.21248 8.93907265,-0.28752 8.9390718,-0.28753 -4.45409,-7.29959 -4.4540888,-7.29959 4.6422858,-2.0535 c 5.483257,-2.4255 5.387879,-2.51824 7.936544,7.71664 1.018437,4.08982 2.133019,7.43604 2.476847,7.43604 0.343829,0 2.998327,-2.925 5.898884,-6.5 2.900558,-3.575 5.590856,-6.5 5.97844,-6.5 0.89948,0 7.097033,6.36575 7.097033,7.28964 0,0.38193 -3.15,2.78903 -7,5.34911 -3.85,2.56007 -6.994127,4.92616 -6.986948,5.25797 0.0072,0.3318 3.607179,2.11347 8,3.95926 4.392821,1.8458 7.986948,3.76794 7.986948,4.27144 0,1.08278 -5.047454,8.87258 -5.749047,8.87258 -0.265801,0 -3.516683,-2.68932 -7.224182,-5.97627 -3.707499,-3.28694 -7.030226,-5.68694 -7.383839,-5.33333 -0.353613,0.35361 -0.642932,2.98668 -0.642932,5.85127 0,11.23009 -0.830127,12.33759 -7.75,10.33955 z M 992.52852,549.50081 c -0.4374,-5.25013 -1.1414,-8.5 -1.8414,-8.5 -0.6233,0 -3.90437,2.74642 -7.29121,6.10316 l -6.15789,6.10315 -3.11902,-4.53333 c -1.71545,-2.49333 -3.11901,-4.78473 -3.11901,-5.09199 0,-0.30727 3.68282,-2.41035 8.18404,-4.67352 l 8.18404,-4.11486 -8.17555,-4.6463 c -4.49655,-2.55547 -8.16247,-4.87131 -8.14649,-5.14631 0.016,-0.275 1.60621,-2.3 3.53385,-4.5 l 3.5048,-4 6.40509,6.96923 c 3.5228,3.83307 6.58765,6.75807 6.81085,6.5 0.2232,-0.25808 1.2171,-4.40673 2.2088,-9.21923 0.9918,-4.8125 2.2953,-8.74012 2.8969,-8.72804 0.6015,0.0121 2.9981,0.88648 5.32588,1.94312 l 4.2321,1.92115 -4.0979,7.10777 c -2.25388,3.90927 -3.83078,7.37499 -3.50418,7.70159 0.3266,0.32661 4.20378,0.1734 8.61578,-0.34046 l 8.022,-0.9343 v 5.8014 5.80141 l -4.25,-0.63437 c -2.3375,-0.34891 -6.2746,-0.99208 -8.7492,-1.42928 -2.47458,-0.43719 -4.61578,-0.67837 -4.75818,-0.53595 -0.1424,0.14243 1.3197,3.67579 3.24918,7.85192 1.9295,4.17613 3.5082,8.01903 3.5082,8.53978 0,0.82911 -7.26648,3.18426 -9.82458,3.18426 -0.5164,0 -1.2575,-3.825 -1.6469,-8.5 z M 89.397525,470.17383 c -9.040998,-6.54927 -14.397541,-20.6348 -14.397541,-37.85969 0,-8.00761 0.423326,-11.01609 2.075706,-14.75157 l 2.075706,-4.69248 -4.757407,-5.18464 c -2.616574,-2.85155 -4.856229,-5.32773 -4.97701,-5.50261 -0.120781,-0.17488 -2.894926,5.22512 -6.164767,12 -6.657701,13.79429 -11.46493,19.58808 -18.473488,22.26467 -5.276375,2.01506 -10.417608,1.07787 -15.190049,-2.76899 -3.973567,-3.20293 -2.717827,-4.71721 3.318923,-4.00225 4.685316,0.55491 4.992593,0.42966 8.949965,-3.64814 2.253939,-2.32253 5.493423,-6.7663 7.198854,-9.87505 2.995548,-5.46044 11.115518,-23.45224 10.664852,-23.63062 -0.121707,-0.0482 -0.986368,-0.67175 -1.921469,-1.38572 -1.524345,-1.16387 -2.235568,-0.22965 -6.876806,9.03297 -6.624756,13.22118 -10.400012,18.44029 -15.501306,21.42985 -7.776718,4.55746 -17.916633,2.16852 -22.570932,-5.31766 -2.113822,-3.39997 -2.350772,-4.94548 -2.350772,-15.33295 0,-11.36315 0.06217,-11.67765 3.805405,-19.25158 2.213315,-4.47834 5.196475,-8.80967 7.130333,-10.35274 l 3.324927,-2.65302 -2.049561,-4.93179 c -1.72617,-4.15363 -1.826947,-5.06938 -0.638692,-5.80376 0.775978,-0.47958 1.685747,-0.55321 2.021709,-0.16361 0.605041,0.70163 9.905879,23.83278 9.905879,24.63588 0,0.22956 -1.539472,0.92545 -3.42105,1.54642 -9.349528,3.08563 -16.57895,12.49133 -16.57895,21.56974 0,3.76211 0.537708,5.14787 2.923077,7.53324 4.126319,4.12632 6.800542,3.75222 12.3602,-1.72908 3.371304,-3.32378 6.574386,-8.36347 11.217693,-17.64977 3.574467,-7.14869 6.49903,-13.54051 6.49903,-14.20404 0,-0.66354 -1.603439,-3.30639 -3.563197,-5.873 -6.61164,-8.65901 -11.934516,-23.22717 -8.875832,-24.29223 0.583534,-0.2032 1.822272,2.04568 2.752751,4.99749 0.930479,2.95182 4.010735,8.81403 6.845014,13.02713 l 5.153235,7.66019 4.286531,-6.38972 c 5.013204,-7.47293 8.979968,-10.23378 16.051677,-11.17187 12.644435,-1.67735 20.35937,5.68853 28.853452,27.54798 2.030325,5.225 4.099225,9.99808 4.597565,10.60684 1.20612,1.47337 -0.0412,7.43291 -1.68795,8.06483 -1.545045,0.59288 -8.948605,10.21445 -10.529325,13.68375 -0.969777,2.12843 -0.61994,3.09088 2.83027,7.7866 11.001975,14.97358 15.807935,26.69362 15.028605,36.64945 -0.6185,7.90122 -3.07402,10.63442 -9.884345,11.00216 -4.67849,0.25262 -5.99974,-0.11336 -9.46091,-2.62061 z m 14.211875,-2.69965 c 1.28724,-1.96458 1.54502,-4.07094 1.1588,-9.46879 -0.40641,-5.68021 -1.34155,-8.6293 -5.144315,-16.22337 -2.55618,-5.10466 -6.30005,-11.52675 -8.3197,-14.2713 l -3.672097,-4.99009 -2.447462,5.49009 c -6.390557,14.33514 -2.460982,33.58221 8.181189,40.07149 4.43544,2.7046 8.220265,2.47994 10.243585,-0.60803 z M 83.225239,404.23661 c 1.370064,-2.0703 4.856424,-6.35231 7.747466,-9.51557 l 5.25644,-5.75139 -3.36458,-7.58418 c -5.166196,-11.64524 -11.909566,-17.61145 -18.114581,-16.0269 -4.013885,1.025 -9.636151,6.61369 -13.369637,13.28979 -3.635523,6.50092 -3.642236,6.53502 -1.673939,8.50332 1.968297,1.9683 1.991898,1.94904 5.884899,-4.80132 3.928258,-6.81149 8.988465,-11.34955 12.655431,-11.34955 4.005037,0 8.576408,3.09389 10.088599,6.82794 1.845338,4.55669 0.502463,6.4235 -2.217112,3.08214 l -1.961597,-2.41008 -3.026859,2.88779 c -1.664772,1.58828 -4.674271,6.02281 -6.687776,9.85452 l -3.660918,6.96674 4.821863,4.89548 c 2.652024,2.69251 4.89148,4.89547 4.976568,4.89547 0.08509,0 1.275668,-1.69389 2.645733,-3.7642 z m 850.950641,48.87245 c -1.13499,-6.44341 -5.80111,-16.49902 -10.23844,-22.06412 l -2.82592,-3.54413 2.05358,-6 c 1.90029,-5.55214 1.93624,-6.20645 0.48168,-8.76579 -0.86455,-1.52119 -1.30323,-3.46593 -0.97487,-4.32164 0.47562,-1.23944 1.36279,-0.8081 4.36251,2.12105 l 3.76548,3.67689 30.57201,-5.10806 c 16.81461,-2.80944 32.16411,-5.8673 34.11001,-6.79525 2.8493,-1.35874 3.7795,-1.44099 4.77808,-0.42255 0.9908,1.01045 0.6654,1.72684 -1.61878,3.56431 l -2.8588,2.29969 5.60878,3.72291 c 3.0848,2.0476 5.6088,4.1026 5.6088,4.56666 0,1.76172 -2.0816,2.01803 -4.2208,0.51971 -1.2383,-0.8674 -4.23098,-1.5464 -6.75168,-1.53192 -4.2316,0.0243 -32.6023,5.21542 -33.52021,6.13334 -0.22971,0.2297 2.71218,3.84791 6.53752,8.04046 3.82534,4.19255 6.95516,8.05835 6.95516,8.59066 0,0.53232 -1.17288,3.52975 -2.6064,6.66098 l -2.6064,5.69313 2.1064,2.24216 c 4.5988,4.8952 1.46736,6.32469 -3.43856,1.56969 l -3.14017,-3.04358 -12.90744,2.18003 c -9.80093,1.65535 -13.22192,2.62854 -14.21413,4.04357 -2.38363,3.3994 -3.92738,2.16001 -5.01741,-4.0282 z m 26.44006,-12.60351 c 1.49566,-0.33615 2.4806,-1.77795 3.35984,-4.91829 1.23439,-4.40879 1.2147,-4.47765 -2.57771,-9.01459 -2.26841,-2.71374 -4.65,-4.56476 -5.85984,-4.5544 -2.34716,0.0201 -19.69932,2.79391 -20.06362,3.20724 -0.13345,0.15142 -1.22259,2.57351 -2.42031,5.38243 l -2.17767,5.10712 2.69843,4.46743 2.69843,4.46744 11.11325,-1.83441 c 6.11229,-1.00893 12.06543,-2.04842 13.2292,-2.30997 z m -41.42118,-41.0977 c -3.40712,-2.53187 -6.18799,-4.89673 -6.17971,-5.25522 0.0624,-2.70318 3.1635,-8.75228 4.87934,-9.5179 2.83043,-1.26298 2.66955,-1.98775 -1.1444,-5.1554 -10.44194,-8.67247 -12.75,-11.49582 -12.75,-15.59651 0,-5.98172 2.2462,-9.42872 7.43557,-11.41055 6.37099,-2.43311 10.00112,-1.40813 17.72807,5.00555 l 6.5844,5.46532 3.62817,-7.93715 c 3.59702,-7.86903 5.62561,-10.00518 9.50134,-10.00518 2.5378,0 5.12245,3.61568 5.12245,7.1658 0,3.2112 -3.20667,5.85442 -6.16413,5.08103 -1.94732,-0.50924 -1.96932,-0.40558 -0.51209,2.4124 1.91735,3.70775 10.11877,11.34077 12.18526,11.34077 2.49749,0 2.80952,2.63902 0.67174,5.68139 -3.58921,5.108 -3.58307,7.84127 0.0252,11.2135 2.70007,2.52343 2.95046,3.10784 1.56013,3.64136 -1.02332,0.39269 -3.45513,-0.60224 -6.36438,-2.60385 l -4.70826,-3.23937 -11.81637,3.84698 c -10.75422,3.50118 -11.90894,4.11255 -12.84632,6.80152 -0.74024,2.12345 -0.70445,3.34676 0.12724,4.34889 0.7417,0.89369 0.81149,1.74006 0.19436,2.35719 -0.61712,0.61712 -3.18714,-0.69006 -7.15762,-3.64057 z m 28.83713,-27.48404 c 0.97224,-2.34722 0.66001,-3.29827 -2.69433,-8.20691 -2.0867,-3.05362 -4.06121,-5.38689 -4.3878,-5.18505 -0.32658,0.20184 -1.83763,3.53732 -3.35787,7.41216 -3.04917,7.77183 -3.96951,8.81823 -6.15823,7.00175 -1.29963,-1.0786 -1.27728,-1.53469 0.18456,-3.76573 1.61963,-2.47187 1.58044,-2.61252 -1.49325,-5.35886 -6.27887,-5.61016 -13.50858,-3.39365 -14.79539,4.53603 -0.57424,3.53864 -0.3225,3.99111 4.74648,8.5312 l 5.35289,4.79438 10.75162,-3.55205 c 9.08198,-3.00044 10.9224,-3.96433 11.85132,-6.20692 z m -843.59887,-18.52099 -0.68951,-4.59799 -11.465205,-5.38718 c -8.443223,-3.96724 -11.916042,-5.14591 -13.175646,-4.47179 -0.940741,0.50347 -2.320502,0.53836 -3.066134,0.0775 -1.113435,-0.68814 -1.130813,-1.38077 -0.09725,-3.87601 0.731842,-1.76682 1.248538,-7.22331 1.234774,-13.03962 l -0.02367,-10.00148 3.392077,-1.11949 c 1.865642,-0.61571 4.540465,-2.48427 5.944052,-4.15233 3.202635,-3.80612 5.116337,-3.14378 5.998207,2.07599 1.25778,7.44475 -2.613115,14.09039 -8.207237,14.09039 -1.506658,0 -2.273689,0.5923 -2.266251,1.75 0.0081,1.25393 3.522233,3.40718 12.397048,7.59607 l 12.385805,5.84607 5.04719,-3.84607 5.04719,-3.84607 -0.58233,-6.25 c -0.47564,-5.10496 -0.31211,-6.25 0.89264,-6.25 1.9264,0 5.3039,22.19222 3.80403,24.99475 -0.5329,0.99574 -3.02487,2.8057 -5.5377,4.02214 -5.26451,2.54851 -7.92618,5.95503 -6.98065,8.93415 0.50798,1.60049 0.21122,2.04896 -1.3558,2.04896 -1.61731,0 -2.13975,-0.89113 -2.69563,-4.59799 z m 795.31697,-8.49378 c -7.98806,-5.54361 -7.84304,-7.3235 1.33688,-16.40823 9.79591,-9.69433 9.88872,-9.94189 5.23987,-13.97642 -3.70582,-3.21612 -3.91249,-3.27074 -6.53986,-1.7285 -3.53863,2.07712 -4.69802,6.813 -2.1318,8.70796 1.40111,1.03461 1.56635,1.64504 0.68693,2.53762 -0.88428,0.89751 -2.83421,0.0909 -8.25,-3.41251 -3.90061,-2.52329 -7.09202,-5.21531 -7.09202,-5.98225 0,-0.76695 0.69564,-3.36352 1.54586,-5.77017 1.49474,-4.23105 1.47292,-4.43491 -0.66008,-6.16565 -3.537,-2.86995 -0.9211,-4.31146 3.23071,-1.78031 1.86093,1.13451 3.95052,2.06444 4.64354,2.06649 1.59355,0.005 56.8543,-23.69746 59.89539,-25.69005 3.17823,-2.08246 4.87505,-0.76475 2.89892,2.25121 -0.85489,1.30472 -1.55434,2.75587 -1.55434,3.22477 0,0.46891 2.3625,1.61007 5.25,2.53592 6.608,2.11878 8.20124,3.14275 7.25988,4.6659 -0.50774,0.82155 -2.15802,0.99592 -5.16203,0.54544 -2.54475,-0.3816 -5.99019,-0.16869 -8.13177,0.50252 -3.25346,1.0197 -27.20827,10.85358 -28.02344,11.50413 -0.16905,0.13491 3.26876,2.76546 7.63958,5.84566 4.37082,3.0802 8.18206,6.21306 8.46942,6.96191 0.46469,1.21098 -6.1671,14.81009 -8.30313,17.02633 -0.46718,0.48472 -3.45492,-1.14327 -6.74655,-3.67612 l -5.90803,-4.54612 -1.82559,3.17612 c -1.00408,1.74687 -4.54531,6.04219 -7.8694,9.54517 -5.42766,5.71975 -5.87076,6.49559 -4.34637,7.61024 1.68237,1.23018 2.38971,4.56748 0.94743,4.47004 -0.4125,-0.0279 -3.3375,-1.84636 -6.5,-4.0411 z m 27.44108,-27.22525 2.60771,-5.31702 -5.22877,-4.04572 -5.22876,-4.04571 -6.32768,2.87235 c -3.48022,1.5798 -6.09937,3.10066 -5.82034,3.3797 1.27313,1.27312 16.36692,12.42417 16.84844,12.44735 0.29793,0.0143 1.71515,-2.36659 3.1494,-5.29095 z m -802.19108,-6.93918 v -6.25621 l -13.1006,-7.85748 c -11.42946,-6.85516 -13.285125,-7.67297 -14.547065,-6.41102 -0.79555,0.79555 -1.54465,2.724 -1.66467,4.28544 -0.33706,4.38518 -1.93087,3.95049 -4.90028,-1.33651 -2.4005,-4.27404 -2.552665,-5.05813 -1.322466,-6.81448 1.301446,-1.85808 0.885266,-2.29958 -6.522463,-6.91913 l -7.912615,-4.93441 -0.01492,-5.75 c -0.0089,-3.44511 0.416202,-5.75 1.060603,-5.75 0.59154,0 4.07904,1.74187 7.75,3.87082 3.67096,2.12895 8.123141,4.60836 9.893731,5.50979 3.20998,1.63423 3.22367,1.63043 4.75,-1.32117 0.84191,-1.62806 1.53074,-4.10747 1.53074,-5.50978 0,-3.53535 1.143815,-3.19855 4.865585,1.43269 l 3.20031,3.98236 -1.91279,3.7284 -1.91279,3.72841 12.62985,7.76354 c 6.94641,4.26995 13.17117,7.77511 13.83279,7.78924 0.66162,0.0141 2.38277,-0.51187 3.82478,-1.16889 2.28772,-1.04235 2.54282,-1.61583 2.00174,-4.5 -0.46716,-2.4902 -0.26698,-3.30541 0.81167,-3.30541 1.41494,0 1.72299,1.29032 3.24445,13.59001 l 0.62962,5.09001 -5.8576,3.04827 c -4.80064,2.49824 -5.919,3.56408 -6.19784,5.90675 -0.31597,2.65457 -1.61606,4.31302 -3.40977,4.34965 -0.4125,0.008 -0.75,-2.79998 -0.75,-6.24089 z m 749.78498,-23.24686 c -2.25398,-2.47668 -6.61518,-5.71798 -9.69156,-7.20288 -6.48202,-3.12872 -7.04985,-3.75205 -7.10007,-7.79406 -0.0596,-4.7996 -3.50074,-11.1613 -7.40594,-13.69163 -3.60989,-2.33897 -4.73843,-4.80837 -2.19749,-4.80837 1.24503,0 17.58571,3.15713 23.40078,4.5212 2.0629,0.4839 1.83916,-0.13575 -2.25,-6.23126 -5.56376,-8.29361 -5.91674,-10.81515 -1.38715,-9.90923 4.71225,0.94245 12.84645,-4.43011 12.84645,-8.48496 0,-1.59266 0.4081,-2.89575 0.90688,-2.89575 0.49879,0 2.81197,2.27542 5.14041,5.05648 2.6572,3.17374 6.41531,6.15784 10.09312,8.0144 3.89387,1.96562 5.85959,3.56426 5.85959,4.76538 0,0.9941 0.73618,3.96803 1.63595,6.60872 1.29597,3.80347 2.53632,5.34718 5.96839,7.42814 4.0648,2.4646 5.37673,4.42712 3.64566,5.45356 -0.4125,0.24459 -6.24959,-0.54859 -12.97132,-1.76261 l -12.22132,-2.20733 2.1577,3.57163 c 1.18674,1.9644 3.19883,5.13859 4.47132,7.05376 3.1011,4.66735 2.98509,6.23501 -0.43638,5.89665 -3.50306,-0.34643 -12.92037,5.74461 -13.71573,8.87122 -0.82703,3.25106 -2.13854,2.81324 -6.74929,-2.25306 z m 3.7304,-11.13852 c 3.01654,-2.00287 5.48462,-4.03752 5.48462,-4.52144 0,-0.86641 -5.00127,-8.83698 -5.54492,-8.83698 -0.15353,0 -3.80623,-0.67492 -8.11711,-1.49983 -4.31088,-0.8249 -8.10579,-1.4999 -8.43313,-1.5 -0.32734,-9e-5 1.19022,1.87666 3.37236,4.17057 4.30502,4.52551 6.7228,9.30769 6.7228,13.29714 0,1.39267 0.23192,2.53212 0.51538,2.53212 0.28347,0 2.98347,-1.63871 6,-3.64158 z m 17.87534,-17.14906 c -4.00669,-3.49134 -5.39072,-6.22402 -5.39072,-10.64362 0,-1.96116 -0.43684,-3.56574 -0.97076,-3.56574 -1.59056,0 -10.02924,6.29396 -10.02924,7.48027 0,0.60241 1.2375,2.53112 2.75,4.28604 2.05165,2.38048 4.01972,3.42175 7.75,4.10038 8.80845,1.60248 9.43077,1.42739 5.89072,-1.65733 z m -756.74826,19.64395 c -1.31947,-12.62399 -1.30847,-12.65905 4.85754,-15.48194 4.46395,-2.04366 5.5,-2.97511 5.5,-4.94468 0,-1.37532 0.58723,-2.42669 1.3554,-2.42669 0.94369,0 1.54903,2.05029 1.99289,6.75 1.14942,12.17045 1.22093,11.92786 -4.34829,14.75 -3.97739,2.01549 -5,3.04155 -5,5.01685 0,1.75301 -0.54619,2.48315 -1.85754,2.48315 -1.53891,0 -1.96775,-1.05437 -2.5,-6.14669 z M 832.9403,234.60948 c -4.15783,-1.24047 -8.09533,-2.58644 -8.75,-2.99105 -0.65467,-0.40461 -1.19645,-2.8466 -1.20396,-5.42664 -0.021,-7.21837 -0.81119,-8.97807 -4.5918,-10.22578 -1.867,-0.61617 -3.39455,-1.76041 -3.39455,-2.54275 0,-1.73999 1.09679,-1.75104 7.5,-0.0755 l 5,1.30833 9.75,-7.87676 c 8.86022,-7.15793 9.75,-8.18553 9.75,-11.26023 0,-2.50521 -0.51915,-3.54824 -2,-4.01824 -1.1,-0.34913 -2,-1.46454 -2,-2.4787 0,-1.96269 -0.4904,-2.01251 14.75,1.49846 1.80799,0.41652 2.25,1.20848 2.25,4.03141 0,1.93219 -0.675,5.12857 -1.5,7.10307 -1.92672,4.6113 -2.0404,4.34576 1.86043,4.34576 1.84823,0 5.44823,0.28617 8,0.63592 l 4.63957,0.63588 v 4.80506 c 0,2.64278 0.45,5.08317 1,5.42309 0.55,0.33992 1,1.77399 1,3.18683 0,2.4478 -0.19333,2.53787 -4.10497,1.91237 -8.18673,-1.30911 -11.89503,-4.7896 -11.89503,-11.1643 0,-2.08042 -0.47314,-2.43489 -3.25,-2.4348 -2.57535,8e-5 -4.96257,1.45852 -11.5,7.02574 -7.80339,6.64531 -8.25,7.24355 -8.25,11.05093 0,3.65511 0.32187,4.15977 3.5,5.48768 1.925,0.80431 3.5,2.13135 3.5,2.94897 0,1.90491 -0.91933,1.82222 -10.05969,-0.90475 z M 185.99999,214.36343 c -13.48826,-1.96939 -25.21798,-8.44708 -30.94077,-17.08691 -8.49605,-12.8267 -9.78094,-35.62383 -2.8635,-50.80593 1.4606,-3.20568 4.24679,-3.36904 3.45201,-0.2024 -2.49485,9.94027 -2.80034,13.06949 -1.70184,17.43207 2.54447,10.10499 10.22058,21.61014 21.2001,31.77524 7.48457,6.92939 15.27685,10.77877 22.854,11.28984 4.79259,0.32326 6.52896,-0.13564 13.5,-3.56787 4.4,-2.16637 8.99255,-5.01713 10.20568,-6.33502 l 2.20567,-2.39618 -25.52389,-27.48273 c -14.03813,-15.1155 -25.9022,-27.61907 -26.36458,-27.7857 -0.46239,-0.16663 -1.14908,1.10109 -1.526,2.81716 -0.80314,3.65668 -2.42905,1.53028 19.08983,24.96608 8.84768,9.63585 16.61018,18.50265 17.25,19.70399 2.56222,4.81096 0.0229,16.59617 -3.79078,17.59348 -1.46658,0.38352 -1.91524,-0.26669 -2.33295,-3.38097 -0.44935,-3.35015 -2.85775,-6.33583 -18.36508,-22.76707 l -17.8479,-18.91127 -1.70328,3.87733 c -1.21237,2.75983 -2.14907,3.70626 -3.25,3.28379 -0.8507,-0.32644 -1.5385,-0.88288 -1.52846,-1.23654 0.01,-0.35365 2.45555,-7.16801 5.43446,-15.14301 l 5.41619,-14.5 -2.47333,-2.59529 c -2.25711,-2.36842 -2.33056,-2.71379 -0.84015,-3.95071 1.41103,-1.17106 1.88035,-1.02773 3.45036,1.05368 l 1.81718,2.40909 1.60359,-5.45839 c 2.61417,-8.89825 1.68991,-8.45896 17.78686,-8.45377 12.96651,0.004 14.68364,0.2162 18.58384,2.29444 12.63929,6.73492 22.76761,18.1015 27.35643,30.70095 3.18291,8.73927 3.11954,22.89664 -0.13653,30.5 -7.27912,16.99774 -22.86447,29.54024 -39.73872,31.98023 -3.72814,0.53908 -7.00344,0.92778 -7.27844,0.86378 -0.275,-0.064 -1.625,-0.28063 -3,-0.48139 z m 44.11278,-27.58369 c 2.83018,-5.5476 3.07823,-16.48768 0.52397,-23.10891 -1.70949,-4.43137 -2.08086,-4.7771 -4.5,-4.18913 -6.13974,1.49223 -16.09688,11.13872 -14.97414,14.50694 0.72838,2.18515 15.20423,17.90348 16.02251,17.39776 0.4639,-0.28671 1.78135,-2.35971 2.92766,-4.60666 z m -11.83601,-27.80105 c 1.72836,-1.05108 4.3751,-2.18178 5.88164,-2.51267 l 2.73917,-0.60162 -3.02183,-4.9111 c -3.09974,-5.03772 -11.28476,-12.99536 -13.26654,-12.898 -0.61007,0.03 -2.4863,2.16747 -4.16941,4.75 -2.65608,4.07544 -9.72362,10.01675 -13.66634,11.48859 -0.77938,0.29095 1.78768,3.59035 6.61642,8.50399 l 7.88989,8.02859 3.92727,-4.96836 c 2.15999,-2.73261 5.34138,-5.82834 7.06973,-6.87942 z m -18.27677,-14.22692 c 1.925,-1.89911 4.31878,-4.87987 5.31952,-6.62392 l 1.81952,-3.171 -3.81952,-1.62932 c -7.96512,-3.39773 -28.81952,-2.29076 -28.81952,1.52977 0,0.63082 3.28854,4.74203 7.30786,9.13603 l 7.30787,7.98909 3.69213,-1.88886 c 2.03068,-1.03887 5.26714,-3.44268 7.19214,-5.34179 z m 601.5,56.13338 c -5.5,-1.58866 -10.5625,-3.64855 -11.25,-4.57753 -0.6875,-0.92899 -1.25,-3.15689 -1.25,-4.95089 0,-4.54002 -1.9276,-8.29964 -4.59908,-8.97014 -2.0546,-0.51568 -4.00769,-3.11235 -3.05643,-4.0636 0.21535,-0.21536 2.20486,0.0159 4.42112,0.51382 l 4.02956,0.90538 9.60241,-9.63858 c 7.44153,-7.46955 9.60242,-10.2534 9.60242,-12.37069 0,-3.26334 0.87432,-3.40541 4.31266,-0.70081 3.52005,2.76887 12.36299,6.68181 17.00275,7.5236 l 3.8154,0.69222 -0.61951,9.12644 c -0.84194,12.40308 -1.1634,13.62644 -3.58059,13.62644 -1.11715,0 -7.16767,-1.37079 -13.44561,-3.04621 -10.84631,-2.89458 -11.54062,-2.96352 -13.94977,-1.38499 -2.95885,1.93872 -3.10234,3.41085 -0.94858,9.73178 1.56284,4.58667 1.67586,4.67525 7.5,5.87821 4.57511,0.94497 5.91325,1.62868 5.91325,3.02129 0,2.33071 -1.32186,2.20188 -13.5,-1.31574 z m 20.98271,-23.63434 c 0.3329,-2.6125 0.82052,-6.15739 1.08361,-7.87753 0.37876,-2.47639 0.0788,-3.232 -1.44055,-3.62933 -1.39282,-0.36423 -3.75491,1.34838 -8.61589,6.24691 l -6.697,6.74871 5.84356,1.53137 c 9.10013,2.38479 9.13909,2.37282 9.82627,-3.02013 z m -48.81862,-5.06869 c -3.68594,-4.07291 -14.06766,-8.01717 -28.29907,-10.75148 -1.66372,-0.31965 -2.28194,-1.39015 -2.80072,-4.84963 -0.80915,-5.39575 -3.87967,-9.5802 -7.02989,-9.5802 -1.27624,0 -2.57945,-0.675 -2.89604,-1.5 -0.46622,-1.21497 0.41604,-1.50074 4.64301,-1.50392 l 5.21862,-0.004 8.16793,-10.71516 c 6.1647,-8.08721 7.95429,-11.11438 7.29681,-12.34289 -1.94774,-3.63938 1.10249,-3.71598 7.95577,-0.19979 7.35219,3.77216 16.46455,5.60252 15.67178,3.14791 -1.05574,-3.26885 -6.77468,-31.028594 -6.44997,-31.308174 0.19673,-0.16937 2.48284,-0.53616 5.08026,-0.81508 3.78567,-0.40652 4.81512,-0.18493 5.18905,1.11695 0.25656,0.89324 2.31988,11.074074 4.58516,22.624074 5.27886,26.91541 5.44789,27.43894 9.09508,28.16837 4.04911,0.80983 3.79177,3.32792 -0.34187,3.34528 -1.7875,0.008 -4.15,0.27161 -5.25,0.58688 -2.71398,0.77786 -15.89145,19.91089 -15.95217,23.16175 -0.0604,3.23479 -1.69877,3.83341 -3.88374,1.41903 z m 1.63413,-20.55482 8.54286,-11.37351 -1.17664,-5.29867 -1.17665,-5.29867 -5.9939,-1.21208 c -3.29664,-0.66665 -6.24683,-1.06487 -6.55597,-0.88495 -0.30915,0.17993 -4.0296,5.27668 -8.26766,11.32612 l -7.70557,10.99897 2.71783,5.54154 c 2.61641,5.33477 5.07219,7.28371 9.44515,7.49581 0.95627,0.0464 5.15157,-4.61258 10.17055,-11.29456 z m -517.29822,8.34027 c 0,-0.56829 1.09388,-3.19191 2.43084,-5.83028 l 2.43084,-4.79703 -5.44685,-9.91973 c -5.64209,-10.2753 -8.33105,-13.41972 -11.47592,-13.41972 -1.01174,0 -2.28386,0.7875 -2.82694,1.75 -0.77785,1.37858 -1.24886,1.49116 -2.21928,0.53041 -0.9749,-0.96518 -0.71969,-2.52973 1.22339,-7.5 2.12803,-5.44336 2.83313,-6.32414 5.29042,-6.60849 4.19004,-0.48487 7.48542,0.60841 9.99455,3.31581 l 2.23059,2.40685 4.87831,-9.91479 c 2.68306,-5.45314 5.41054,-10.119044 6.06105,-10.368664 2.17611,-0.83505 9.90166,1.485744 12.31618,3.699844 1.89026,1.73336 2.4921,1.89268 2.89121,0.76538 0.27723,-0.78301 2.578,-5.508014 5.11283,-10.500004 3.23553,-6.37193 5.05573,-8.94899 6.10878,-8.64891 0.825,0.2351 3.40765,0.61752 5.73921,0.84984 3.88391,0.38699 4.38679,0.16311 6,-2.67112 3.25292,-5.71502 5.10192,-3.23424 2.35891,3.16493 l -1.90825,4.45176 5.82065,10.388584 c 3.20135,5.71371 6.61237,11.17607 7.58003,12.13857 2.17854,2.16692 6.40945,2.33195 6.40945,0.25 0,-1.67138 3.53324,-2.06426 4.49978,-0.50035 1.01096,1.63576 -6.76179,14.98605 -8.72954,14.99366 -0.95137,0.004 -3.50783,-0.70475 -5.68101,-1.57428 -3.55891,-1.424 -4.70877,-2.91338 -11.58055,-15 -7.32448,-12.882874 -7.75842,-13.419034 -10.86068,-13.419034 -2.92475,0 -3.48835,0.52398 -5.93968,5.522154 -1.48958,3.03719 -2.70832,5.99893 -2.70832,6.58165 0,0.58272 2.3625,5.29725 5.25,10.47673 4.16611,7.47301 5.70726,9.41747 7.46482,9.41836 1.21815,6.1e-4 2.69648,-0.89889 3.28518,-1.99889 0.5887,-1.1 1.77832,-2 2.64359,-2 2.00196,0 1.33786,2.90013 -2.46348,10.75798 l -2.77778,5.74202 -6.90602,-0.28819 c -3.79832,-0.15851 -7.11452,-0.49669 -7.36934,-0.75151 -0.25483,-0.25482 0.12194,-1.55688 0.83726,-2.89347 1.19852,-2.23944 0.80601,-3.2399 -5.00163,-12.74849 -7.89748,-12.9302 -8.80287,-13.98337 -11.70509,-13.61567 -1.69554,0.21481 -3.29468,1.98365 -5.7622,6.37364 l -3.41537,6.07631 5.29914,9.42369 c 4.72732,8.40681 5.63099,9.45682 8.37455,9.73067 2.33387,0.23297 3.22498,-0.16423 3.69568,-1.64728 0.42678,-1.34466 1.23329,-1.79396 2.58548,-1.44035 1.08086,0.28265 1.96521,0.69766 1.96521,0.92225 0,0.45239 -7.04917,14.6531 -7.54822,15.20606 -0.17258,0.19122 -2.68456,-0.16078 -5.58219,-0.78221 -5.22781,-1.12116 -5.28671,-1.1065 -7.64148,1.90234 -2.31365,2.95629 -5.22811,4.07063 -5.22811,1.99897 z m 461,-24.73676 c -4.41335,-2.08896 -7.27816,-2.66042 -14.5,-2.89237 -7.12914,-0.22898 -9.20787,-0.63596 -10,-1.95784 -3.98921,-6.65706 -7.26064,-9.89701 -10.29218,-10.19315 -4.72244,-0.46131 -4.06623,-2.90494 1.04218,-3.88092 4.23483,-0.80909 4.27204,-0.85481 10.42406,-12.80885 3.81358,-7.410194 5.82077,-12.360084 5.25,-12.946874 -1.31787,-1.35486 -1.14408,-4.55 0.24748,-4.55 0.64435,0 4.13185,1.18854 7.75,2.64121 5.04861,2.02698 8.67145,2.71036 15.57846,2.93856 7.20492,0.23805 9.19945,0.63667 10,1.99858 0.55,0.93567 2.3648,3.77582 4.0329,6.31144 2.79583,4.249854 3.32884,4.592384 6.8191,4.382114 3.10898,-0.18731 3.72694,0.0797 3.45483,1.49262 -0.22293,1.15759 -1.80006,1.99469 -4.8191,2.55786 l -4.48773,0.83714 -5.47452,11.56125 c -3.55879,7.51554 -5.36958,12.56171 -5.17464,14.42024 0.25493,2.43034 -0.0487,2.84649 -2.02547,2.77564 -1.27896,-0.0458 -4.80037,-1.25483 -7.82537,-2.68665 z m 3.00837,-17.32895 5.95452,-12.09895 -4.21827,-5.40105 c -3.68617,-4.719754 -4.66398,-5.401054 -7.75157,-5.401054 -3.50942,0 -3.5723,0.0784 -9.30562,11.596304 l -5.77233,11.5963 3.15536,4.9172 c 3.57447,5.57034 5.24685,6.81643 9.20646,6.85979 2.56261,0.0281 3.23649,-0.90337 8.73145,-12.06854 z m -316.80558,9.43051 c -5.5103,-3.32167 -10.86832,-3.52642 -14.6402,-0.55945 -3.0879,2.42894 -4.56259,2.81012 -4.56259,1.17935 0,-0.5767 3.375,-6.37585 7.5,-12.887 4.125,-6.51115 7.5,-12.29844 7.5,-12.86064 0,-0.5622 -3.14832,-1.58482 -6.99626,-2.272494 -6.35663,-1.13599 -7.31298,-1.07974 -10.46052,0.615334 -4.65213,2.50533 -5.4074,1.30785 -2.14463,-3.400324 l 2.69569,-3.88989 -3.0995,-12.37822 c -2.47398,-9.88016 -3.59346,-12.74823 -5.54714,-14.21164 -1.3462,-1.00837 -2.44764,-2.17464 -2.44764,-2.59171 0,-0.41707 1.9125,-1.33095 4.25,-2.03084 6.93313,-2.07591 17.98939,-7.99474 21.84129,-11.69245 l 3.59128,-3.44753 5.19574,2.04797 c 6.15056,2.42433 9.96548,2.61861 10.76006,0.54797 0.65998,-1.71987 1.29114,-1.8305 3.27583,-0.57419 1.154,0.73048 0.91045,1.49387 -1.32367,4.14897 -1.82241,2.16581 -2.55274,3.95118 -2.18419,5.3395 0.30453,1.14714 1.80018,7.65997 3.32368,14.47294 2.65416,11.86929 2.91632,12.481 6.26998,14.63035 6.48114,4.15373 8.33493,6.9647 8.7959,13.337514 0.39465,5.45602 0.20849,6.07032 -2.91892,9.63225 -5.81381,6.62157 -20.78855,19.51425 -22.61846,19.47365 -0.96719,-0.0215 -3.69226,-1.2047 -6.05573,-2.62942 z m -6.81882,-8.71863 c 5.75877,-2.40617 10.79785,-2.7829 16.02951,-1.1984 4.81332,1.4578 4.97464,1.43668 7.91354,-1.03625 9.46339,-7.96291 9.14357,-12.88057 -1.20766,-18.569794 -1.69269,-0.93033 -3.90951,-3.05945 -4.92627,-4.73137 l -1.84864,-3.03986 -10.2252,14.981374 c -5.62386,8.23975 -9.96191,14.98137 -9.64011,14.98137 0.3218,0 2.07898,-0.62418 3.90483,-1.38707 z m 13.10806,-30.960434 c 1.40822,-2.14921 1.32258,-3.26836 -1.01394,-13.25 -1.40365,-5.99637 -2.7746,-11.6391 -3.04657,-12.53938 -0.76839,-2.54356 -12.27412,-3.513 -16.39603,-1.38147 -2.16341,1.11874 -2.97838,2.14942 -2.62543,3.32034 0.52688,1.74794 3.64441,13.46976 5.55563,20.88899 0.99489,3.86208 1.37214,4.22167 4.80696,4.5819 9.55897,1.00251 11.13211,0.8021 12.71938,-1.62038 z m -75.00468,29.327034 c -0.34688,-0.56126 0.52656,-2.39579 1.94098,-4.07673 1.41442,-1.68094 2.57167,-3.46944 2.57167,-3.97445 0,-0.50501 -2.08698,-6.13337 -4.63774,-12.507474 -3.46745,-8.66485 -5.23382,-11.86087 -7,-12.66559 -1.29924,-0.59198 -2.34985,-1.56659 -2.33468,-2.16581 0.0152,-0.59921 2.75553,-2.88948 6.0897,-5.08948 3.33417,-2.2 7.82733,-5.98219 9.98481,-8.40487 3.49517,-3.9248 4.17735,-4.28884 6.25927,-3.34026 5.10625,2.32657 16.63637,10.30625 16.60023,11.48857 -0.0211,0.69111 -3.81664,5.94842 -8.43448,11.68292 -8.29255,10.29779 -8.37807,10.46117 -6.93591,13.250004 0.93389,1.80595 2.26185,2.82761 3.68448,2.83465 1.22338,0.006 3.79932,0.24974 5.72432,0.54154 3.29823,0.49996 3.69361,0.24122 6.85844,-4.48815 2.87049,-4.289524 3.63327,-4.871614 5.25,-4.006364 1.04036,0.55678 1.87794,1.33399 1.8613,1.72714 -0.0167,0.39315 -3.77268,4.745534 -8.34674,9.671954 l -8.31646,8.95712 -5.22956,-1.20712 c -7.32897,-1.69173 -9.86859,-1.51368 -11.30905,0.79287 -1.35328,2.16694 -3.27495,2.60668 -4.28058,0.97953 z m 16.45287,-29.769564 c 2.37218,-2.90952 4.14356,-5.43119 3.93641,-5.60371 -1.54954,-1.29052 -12.06592,-7.60311 -12.64605,-7.59095 -0.40182,0.008 -1.36028,0.41401 -2.12991,0.90131 -1.15622,0.73207 -0.8146,2.4639 1.96635,9.96834 1.85112,4.99529 3.63443,8.7522 3.96291,8.34869 0.32849,-0.40351 2.53812,-3.11417 4.91029,-6.02368 z m 200.67651,29.220274 c -11.27608,-1.89661 -18.32507,-5.57615 -20.69954,-10.80505 -3.98779,-8.781654 -1.79024,-15.871324 6.65306,-21.463934 6.55214,-4.33995 11.1959,-5.46127 22.92975,-5.5368 9.40696,-0.0606 10.50072,0.15467 18.44326,3.62899 4.6438,2.03134 8.56918,3.56745 8.72306,3.41356 0.15389,-0.15389 2.56272,-11.50442 5.35295,-25.2234 5.98112,-29.40786 5.72524,-28.44361 7.54812,-28.44361 1.70963,0 1.70883,0.37872 -0.0212,10 -0.74172,4.125 -1.24458,7.61097 -1.11745,7.7466 0.12712,0.13563 2.51531,-0.43172 5.30708,-1.26079 8.24506,-2.44852 13.60412,-10.01836 14.90034,-21.04721 0.8617,-7.33174 -0.0858,-10.30373 -3.78003,-11.85705 -5.879,-2.47193 -17.56006,1.89801 -19.82986,7.41845 -0.56535,1.375 -2.82983,11.5 -5.03218,22.5 -2.42506,12.11238 -4.71293,20.98595 -5.80115,22.5 -2.14031,2.9778 -9.48555,6.84867 -14.55773,7.67177 -4.60952,0.74802 -4.83099,-1.02047 -0.57593,-4.59895 2.90126,-2.43994 3.28473,-3.68326 7.42451,-24.07282 5.06682,-24.95549 4.56556,-24.15143 19.51621,-31.30561 7.45148,-3.56568 9.5718,-4.12081 17.18878,-4.50029 7.58442,-0.37787 9.1279,-0.1615 12.14354,1.70227 6.47676,4.00285 9.1496,13.57435 5.8932,21.10363 -2.55242,5.90155 -6.85579,9.97759 -14.28088,13.52646 l -6.04843,2.89088 5.58329,2.82324 c 4.03631,2.04099 6.0456,3.79271 7.25184,6.32222 1.58251,3.31856 1.55511,4.08109 -0.53139,14.78713 -2.5363,13.01396 -2.64561,14.9636 -0.9878,17.61816 0.66667,1.06752 0.91385,2.23924 0.54928,2.60381 -0.36458,0.36458 -4.60079,-0.11855 -9.41382,-1.07361 -9.58095,-1.90117 -15.44674,-1.65898 -26.15915,1.08008 l -6.68846,1.71018 -8.54485,-4.11241 c -15.62234,-7.51862 -25.10644,-8.69042 -33.92491,-4.19157 -4.73806,2.41718 -6.03024,4.54178 -6.03024,9.91489 0,8.022474 8.93088,14.230134 22.5,15.639264 6.35348,0.6598 8.44103,1.57291 8.48469,3.71128 0.02,0.97993 -2.76596,0.79528 -12.36796,-0.81976 z m 57.31717,-30.670464 c 0.96219,-2.76015 0.87014,-3.4299 -0.62128,-4.52046 -2.42724,-1.77484 -8.94099,-3.41957 -12.07278,-3.04839 -2.60273,0.30848 -2.73285,0.53661 -4.59661,8.05907 l -0.68133,2.75 h 8.42122 8.42123 z m 2.40577,-9.50978 c 1.92849,-7.11332 1.89944,-7.24799 -1.57062,-7.28265 -1.79798,-0.018 -5.61241,-0.84232 -8.47651,-1.83193 l -5.20746,-1.79929 -0.6172,3.08194 c -0.33945,1.69506 -0.83892,3.86943 -1.10992,4.83193 -0.42408,1.50614 0.24822,1.75494 4.82465,1.78543 2.92457,0.0195 6.44239,0.67855 7.81739,1.46457 3.26929,1.86889 3.77308,1.83987 4.33967,-0.25 z m 2.66033,-14.82692 c 0,-4.62992 -4.87786,-9.95758 -8.28148,-9.04514 -1.22018,0.32711 -3.40679,0.60089 -4.85911,0.6084 -2.29117,0.0118 -2.70776,0.50989 -3.14816,3.76366 -0.76479,5.6505 2.49466,8.25 10.34451,8.25 h 5.94424 z m 34.98321,51.847994 c -0.83423,-0.18034 -2.59733,-2.36473 -3.91799,-4.8542 -2.93443,-5.53145 -5.36375,-7.05751 -8.76665,-5.50705 -2.65234,1.20849 -4.29857,0.71256 -4.29857,-1.29495 0,-0.72945 2.5949,-1.871284 6.11545,-2.690994 l 6.11545,-1.42388 4.35499,-11.72046 c 4.26163,-11.46918 4.31884,-11.78346 2.66868,-14.65871 -1.21855,-2.12319 -2.37841,-2.89422 -4.18126,-2.77954 -1.53458,0.0976 -2.61909,-0.43501 -2.81747,-1.38372 -0.23413,-1.11964 1.55626,-2.14753 6.53176,-3.75 3.76986,-1.21416 7.52652,-2.20757 8.34813,-2.20757 1.99457,0 4.86427,6.21455 4.86427,10.53393 0,1.90634 0.23623,3.46607 0.52496,3.46607 0.28873,0 3.74735,-1.62276 7.68581,-3.60614 6.75979,-3.40418 7.23444,-3.50548 8.47503,-1.80887 0.72281,0.9885 1.3142,2.37279 1.3142,3.0762 0,0.70341 1.35,2.27703 3,3.49693 1.65,1.2199 3,2.96114 3,3.86942 0,2.18849 -4.12213,3.97246 -9.17898,3.97246 -3.34632,0 -4.66189,-0.61182 -7.27633,-3.38394 -2.99645,-3.17716 -3.37274,-3.30772 -6.15796,-2.13662 -2.59672,1.09184 -3.42097,2.56647 -6.6126,11.83045 l -3.64611,10.583144 2.10715,2.80348 c 1.15894,1.54192 2.38578,3.13664 2.72632,3.54382 0.34054,0.40718 2.0871,0.31933 3.88124,-0.19523 2.57962,-0.73982 3.38157,-0.62417 3.83321,0.5528 0.31413,0.8186 0.38854,1.67095 0.16536,1.89413 -0.78212,0.78212 -17.35681,4.10358 -18.85809,3.77904 z M 443.25262,88.750806 c -9.44331,-6.60022 -7.13204,-16.67576 5.77527,-25.17623 l 5.02108,-3.30678 -6.932,-5.67129 c -8.81191,-7.2093 -9.9574,-9.75528 -6.11698,-13.5957 4.33006,-4.33006 11.75992,-0.73637 10.48438,5.0711 -0.62462,2.84391 -0.55809,2.90742 2.0194,1.92746 4.983,-1.89453 11.31978,-6.08033 12.93364,-8.5434 2.12555,-3.244 4.16021,-3.09741 7.56258,0.54484 3.13381,3.35475 5.90007,3.76681 9.49121,1.4138 4.46027,-2.92248 4.79171,-0.4444 0.55527,4.1516 -4.50683,4.88933 -4.66949,5.96823 -3.12271,20.71205 0.96667,9.21416 2.8718,12.146 7.2655,11.18098 4.50209,-0.98883 3.48332,1.72401 -2.59876,6.92009 -2.97522,2.54182 -5.68417,4.62148 -6.01987,4.62148 -0.33571,0 -2.40144,-1.13065 -4.59051,-2.51255 -2.90006,-1.83072 -3.98013,-3.18755 -3.98013,-5 0,-1.3681 -0.3703,-2.48745 -0.82289,-2.48745 -0.45259,0 -4.50888,2.7 -9.01399,6 -9.24274,6.77032 -12.58725,7.47057 -17.91049,3.75 z m 21.14279,-10.84672 c 4.97718,-3.56408 5.65609,-4.44169 5.22171,-6.75 -0.27461,-1.45931 -0.78479,-6.51383 -1.13373,-11.23229 -0.59966,-8.10851 -0.79303,-8.67268 -3.52603,-10.2871 -2.76144,-1.63122 -3.0713,-1.61642 -6.88464,0.329 -2.19618,1.12041 -4.68598,2.03711 -5.53289,2.03711 -2.76981,0 -1.63895,1.56169 4.96016,6.84989 3.575,2.86482 6.5,5.65969 6.5,6.21082 0,2.06605 -3.16701,2.13102 -5.31922,0.10912 l -2.21745,-2.08319 -3.09658,2.42343 c -1.70311,1.33289 -3.67382,3.81705 -4.37936,5.52037 -1.13313,2.73563 -1.05015,3.41034 0.71131,5.78325 1.96714,2.64999 5.76963,5.14284 7.88851,5.17157 0.59796,0.008 3.66166,-1.82879 6.80821,-4.08198 z m 86.60458,-3.08046 c 0,-0.64744 1.35197,-2.33494 3.00437,-3.75 2.58002,-2.20942 3.28625,-3.96552 5,-12.4329 1.0976,-5.42304 1.99563,-10.03554 1.99563,-10.25 0,-0.21446 -2.0294,-0.38992 -4.50979,-0.38992 -3.2723,0 -4.97968,0.5488 -6.22224,2 -3.58754,4.18994 -5.61793,1.49526 -2.86298,-3.79966 2.46253,-4.73291 5.77091,-7.04435 10.5685,-7.38381 4.43837,-0.31405 4.48034,-0.35187 5.34483,-4.81653 0.47923,-2.475 1.61616,-5.33539 2.52651,-6.35641 2.68236,-3.00849 8.77862,-5.64359 13.05631,-5.64359 4.73637,0 6.2281,1.62016 2.71984,2.954 -1.37466,0.52265 -2.99435,1.87512 -3.59931,3.00551 -0.60496,1.13038 -2.82132,10.61158 -4.92525,21.06934 -2.514,12.49609 -4.4326,19.68514 -5.59689,20.97166 -1.91025,2.11081 -11.33271,5.99949 -14.53704,5.99949 -1.07937,0 -1.96249,-0.52973 -1.96249,-1.17718 z m -6.96482,-54.75708 c -2.70957,-5.06288 0.16755,-12.4359999 6.67687,-17.1106399 4.22443,-3.03374996 4.71197,-3.14125996 12.59127,-2.77634996 7.72517,0.35777 8.63847,0.65117 15.87671,5.10042996 7.99439,4.9140499 9.89512,5.4031399 14.37651,3.69932 1.91453,-0.7279 3.08644,-0.68977 4.07743,0.13268 1.95404,1.6217099 0.38268,3.2051799 -5.83501,5.8799599 -4.15849,1.78893 -6.48796,2.1298 -12.21851,1.78794 -6.14866,-0.36681 -7.93807,-0.95507 -13.5973,-4.47007 -8.94417,-5.5553099 -11.89858,-6.0924999 -15.73828,-2.8615999 -3.52902,2.9694799 -4.64408,6.3723899 -3.27126,9.9831899 0.76875,2.02196 0.67006,2.5694 -0.46318,2.5694 -0.79203,0 -1.9059,-0.87042 -2.47525,-1.93426 z"
       id="path1" />
  </g>
</svg>
