<?xml version="1.0" encoding="UTF-8" standalone="no"?>
<!-- Created with Inkscape (http://www.inkscape.org/) -->

<svg
   version="1.1"
   id="svg1"
   width="478.66666"
   height="495"
   viewBox="0 0 478.66666 495"
   xmlns="http://www.w3.org/2000/svg"
   xmlns:svg="http://www.w3.org/2000/svg">
  <defs
     id="defs1" />
  <g
     id="g1">
    <path
       style="fill:#000000"
       d="M 223.83333,494.65158 C 163.2873,491.28281 106.57292,469.55712 59.809505,431.81865 45.30424,420.11277 28.520077,403.33613 16.804911,388.83333 13.512756,384.75781 6.5747275,375.48878 4.3769017,372.22983 0.07636854,365.85297 -0.74135509,361.90682 0.68915085,354.43359 4.6589446,333.69463 12.736706,315.33583 24.37003,300.61268 c 3.651777,-4.6217 12.90129,-13.75458 17.623697,-17.40147 7.086502,-5.47258 15.508773,-10.61734 23.672938,-14.46068 7.417856,-3.49201 19.245358,-7.85056 25.251916,-9.30559 3.250209,-0.78733 9.485609,-0.70197 12.813099,0.17542 1.48484,0.39151 24.83823,10.37774 55.45577,23.71363 29.08991,12.67052 53.99956,23.47777 55.35476,24.01611 7.39797,2.93879 14.29215,4.31635 22.81362,4.55852 9.44703,0.26847 16.46137,-0.78384 24.79944,-3.72047 2.20626,-0.77704 27.71139,-11.66123 56.67806,-24.1871 28.96666,-12.52587 53.86666,-23.14013 55.33333,-23.58725 3.63917,-1.10941 9.32414,-1.37911 13.07026,-0.62004 6.56031,1.32928 19.02428,6.03856 28.42974,10.74163 33.88862,16.94556 54.35987,44.42504 62.17819,83.46461 0.75741,3.78201 0.54046,8.7034 -0.50697,11.5 -1.76177,4.70387 -12.90539,19.78764 -24.21285,32.77401 -5.47771,6.29104 -19.22666,20.03998 -25.51769,25.5177 -25.81114,22.47422 -53.29456,39.28857 -84.08454,51.44291 -26.76107,10.56393 -53.8973,16.69806 -84.52281,19.10635 -6.08947,0.47885 -28.57359,0.67744 -35.16666,0.31061 z M 233,294.63498 c -5.64982,-0.73192 -8.17922,-1.71459 -53.61403,-20.82893 -24.68729,-10.3859 -45.75376,-19.33975 -46.81438,-19.89745 -2.20158,-1.15764 -3.54182,-2.54755 -4.74386,-4.91965 -1.16505,-2.29912 -1.36816,-4.89617 -0.67996,-8.69436 0.31171,-1.72036 1.74316,-9.50292 3.18099,-17.29459 6.97745,-37.81114 8.55623,-52.21115 8.89891,-81.16667 0.53258,-45.000938 -3.486,-66.839891 -14.44224,-78.486446 -4.26361,-4.532245 -8.61899,-7.19429 -15.58348,-9.524753 -4.69841,-1.572186 -9.858556,-2.686516 -23.868618,-5.15441 C 67.836292,45.585592 54.418888,42.450744 52.920578,41.094792 51.319754,39.646066 50.95315,37.73526 51.895161,35.75012 52.574473,34.318575 53.820004,33.709232 64.666665,29.502 118.8802,8.473504 165.29634,-1.0757204 206.28466,0.36683101 228.9572,1.1647734 248.46425,5.2602814 265.83333,12.869083 305.78476,30.37045 330.71094,65.37858 337.48365,113.5 c 1.11664,7.93391 1.54094,14.60182 1.84535,29 0.64024,30.28163 2.30778,44.67064 9.85068,85 3.16137,16.90281 3.24714,17.94635 1.74462,21.22826 -1.12549,2.4584 -2.54157,3.97743 -4.82923,5.18034 -1.06063,0.5577 -22.1271,9.51155 -46.81438,19.89745 -46.122,19.40344 -47.87296,20.07921 -54.02547,20.85067 -3.15958,0.39617 -9.11077,0.38562 -12.25522,-0.0217 z"
       id="path1" />
  </g>
</svg>
