<?xml version="1.0" encoding="UTF-8" standalone="no"?>
<!-- Created with Inkscape (http://www.inkscape.org/) -->

<svg
   version="1.1"
   id="svg1"
   width="1657.3333"
   height="210.66667"
   viewBox="0 0 1657.3333 210.66667"
   xmlns="http://www.w3.org/2000/svg"
   xmlns:svg="http://www.w3.org/2000/svg">
  <defs
     id="defs1" />
  <g
     id="g1">
    <path
       style="fill:#000000"
       d="m 704.65486,209.31429 c -1.43666,-2.32457 -11.04685,-6.64762 -14.77773,-6.64762 -1.95932,0 -5.63244,1.27936 -8.16249,2.84301 -4.10182,2.53506 -4.81809,2.62501 -6.61274,0.83035 -1.79465,-1.79465 -0.26637,-3.9171 14.10937,-19.59493 8.86712,-9.67026 16.12203,-18.05458 16.12203,-18.63183 0,-0.57725 -4.30466,-2.95087 -9.5659,-5.27471 l -9.5659,-4.22517 -3.50385,3.35689 c -2.72146,2.60733 -3.86042,3.00032 -5.10076,1.75998 -2.51156,-2.51156 -1.93555,-4.21227 3.06974,-9.06359 l 4.66667,-4.52311 v -20.40511 c 0,-19.51623 -0.11617,-20.40511 -2.66667,-20.40511 -1.75717,0 -2.66666,-0.88889 -2.66666,-2.60625 0,-1.99287 1.17676,-2.77824 5,-3.33701 17.72356,-2.59034 21.69128,-3.875931 33.14667,-10.739904 l 4.14668,-2.484656 6.92435,5.082936 6.92434,5.082934 3.03694,-2.85305 c 2.93579,-2.758035 3.11051,-2.771747 5.24629,-0.411732 2.08055,2.298979 1.93821,2.704134 -2.44129,6.948912 l -4.65065,4.50759 v 23.14997 23.14996 l 4.33333,5.39661 c 3.99013,4.9692 4.33333,6.15876 4.33333,15.01974 0,12.44987 -3.45816,17.93541 -17.65454,28.00467 -8.94274,6.34293 -11.19351,7.3436 -16.6001,7.38023 -3.44005,0.0233 -6.63076,-0.56619 -7.09046,-1.31 z m 22.32821,-13.37308 c 6.37595,-5.2556 8.25228,-11.57284 5.67415,-19.1038 -1.03634,-3.02724 -3.24515,-6.40407 -4.90848,-7.50407 -1.66332,-1.1 -4.05259,-3.01535 -5.30949,-4.25633 -2.15173,-2.12448 -3.0606,-1.42204 -15.55466,12.0218 l -13.26939,14.27811 5.10624,-0.48695 c 6.49834,-0.61972 13.09714,1.55315 17.31092,5.7002 4.29328,4.22528 5.09505,4.17777 10.95071,-0.64896 z m -7.24977,-42.87454 c 1.11526,-1.11526 1.5873,-8.08339 1.5581,-23 -0.0415,-21.20605 -0.0718,-21.42175 -3.33884,-23.79973 -3.14989,-2.2927 -3.62376,-2.29671 -10.62477,-0.0898 l -7.32782,2.3099 0.0182,16.7565 c 0.01,9.21608 0.39785,18.1748 0.86187,19.90828 0.5669,2.11786 3.07591,4.19119 7.64846,6.32031 7.79581,3.62998 8.99828,3.8011 11.2048,1.59458 z m 182.53175,53.47103 c -7.44797,-6.13924 -10.50039,-13.11166 -10.50039,-23.98526 0,-15.81631 8.84065,-27.20738 25.29189,-32.58831 5.39101,-1.76331 9.87035,-2.12007 19.94777,-1.58877 7.1476,0.37684 14.34563,1.11652 15.99563,1.64374 l 3,0.95859 V 108.15551 65.333335 h 3.29571 3.29571 l 0.37096,18.064247 0.37096,18.064248 8.42237,-6.261324 8.42237,-6.261325 -0.42237,-21.257018 c -0.40707,-20.486517 -0.53647,-21.3493 -3.57009,-23.802924 -4.56986,-3.696158 -8.14438,-3.168256 -16.61714,2.454095 l -7.53488,5.000001 -0.0716,41.333334 -0.0716,41.333331 -8.75699,6.47395 c -8.16318,6.03495 -8.90537,6.32295 -10.94522,4.24731 -2.03104,-2.06668 -1.97273,-2.4034 0.81177,-4.68766 2.9907,-2.45341 3.00018,-2.58851 3.0565,-43.580654 l 0.0565,-41.119611 11.42859,-8.666667 c 15.65263,-11.8699 18.4408,-13.211872 27.58602,-13.277446 9.53567,-0.06837 14.18904,2.415774 18.33132,9.785973 2.65762,4.728588 3.10777,7.703018 3.54943,23.453428 l 0.50581,18.038046 -7.54549,5.32136 -7.54549,5.321361 7.45507,1.941799 7.45507,1.941799 v 25.736842 25.73684 h 4.00006 c 3.3229,0 4,0.53664 4,3.17024 0,3.04814 -0.4493,3.19472 -11.66672,3.80568 -13.15779,0.71666 -22.49457,3.77662 -33.33919,10.92631 l -7.00585,4.61886 -8.99414,-4.22364 c -9.1775,-4.30974 -22.8113,-6.30303 -30.28379,-4.42756 -5.00314,1.25571 -12.35056,8.3332 -14.07481,13.55774 -4.96405,15.04121 10.2583,31.50434 27.3488,29.57799 4.54811,-0.51264 6.01565,-0.2301 6.01565,1.15816 0,1.43414 -2.85314,1.83622 -13.02954,1.83622 -12.60045,0 -13.19451,-0.13598 -18.0387,-4.12897 z m 71.22262,-52.85066 c 6.21256,-2.2065 6.51228,-2.54123 6.51228,-7.27291 0,-4.59129 -0.33911,-5.02358 -4.56243,-5.81588 -2.50934,-0.47075 -6.40934,-0.45027 -8.66667,0.0455 -3.89354,0.85516 -4.10423,1.23254 -4.10423,7.35105 0,5.6636 0.76236,7.23976 3.82105,7.89991 0.26824,0.0579 3.41824,-0.93557 7,-2.2077 z m 6.51228,-23.8537 v -4.16667 h -8.66666 -8.66667 V 129.83334 134 h 8.66667 8.66666 z m -1.59754,-10.97516 c 2.43853,-1.54674 1.65838,-18.19151 -0.85264,-18.19151 -0.98094,0 -4.71746,2.1 -8.30338,4.66667 -5.43382,3.88932 -6.52484,5.37219 -6.54981,8.90223 -0.0207,2.92913 0.68974,4.42365 2.30337,4.84533 4.02384,1.05154 11.59177,0.92577 13.40246,-0.22272 z M 13.938343,194.60232 c -3.383182,-3.53128 -3.893899,-5.07308 -3.893899,-11.75521 0,-6.39254 0.766111,-8.95492 4.538271,-15.17896 6.471023,-10.67714 17.710947,-21.97098 25.109784,-25.23024 4.459995,-1.96467 10.21291,-2.97656 19.640831,-3.45468 l 13.333333,-0.67616 7.513847,-9.46905 7.513847,-9.46905 -9.75094,-3.555 C 62.769867,110.28199 52.070229,104.05552 48.583707,98.728584 44.06804,91.829251 42.183448,82.593466 43.040344,71.562328 c 0.904652,-11.645909 1.830908,-14.228993 5.102305,-14.228993 2.155011,0 2.525102,1.023382 2.531451,7 0.0041,3.85 0.615981,9.190926 1.359758,11.868724 2.583639,9.301794 15.209145,17.694286 37.765615,25.103761 8.349899,2.74282 9.314646,2.81815 11.253967,0.87883 1.16664,-1.16663 1.85687,-2.35365 1.53386,-2.63781 C 102.26428,99.26268 95.999995,97.064684 88.666662,94.662405 64.074703,86.606485 57.4318,81.645917 54.799572,69.37226 51.803077,55.400084 57.770288,43.342923 70.926359,36.786976 c 5.684047,-2.832481 8.809646,-3.453642 17.378254,-3.453642 12.287937,0 18.306927,2.12768 25.302627,8.944344 4.17019,4.06347 5.26171,4.547628 7,3.104971 1.64573,-1.365837 2.46117,-1.375743 4.05942,-0.04931 1.1,0.912919 2,2.121267 2,2.685218 0,0.563951 -4.88674,5.017448 -10.85942,9.896661 l -10.85943,8.871296 -3.37433,-5.726587 C 92.974427,46.466444 88.1473,42.666668 78.207216,42.666668 c -8.418618,0 -14.207219,5.433201 -14.207219,13.334946 0,9.208641 4.964571,12.891532 28.43191,21.091776 10.870883,3.798636 20.571733,6.906612 21.557443,6.906612 0.98571,0 5.29135,-4.472381 9.56809,-9.938625 7.9322,-10.138408 9.70758,-11.356817 12.18997,-8.365721 1.04755,1.262218 -0.61161,4.293466 -6.49082,11.858616 -7.47523,9.618857 -7.73814,10.203809 -4.91067,10.925897 4.75096,1.213318 12.81087,8.621579 15.93734,14.648801 2.11952,4.08602 2.88463,7.98438 2.91863,14.87103 0.0839,17.00042 -6.12174,25.80203 -32.26713,45.76502 l -12.398561,9.46676 -8.268102,-6.09161 c -7.153669,-5.27054 -19.555835,-12.4735 -21.477072,-12.4735 -0.347025,0 -6.960427,8.0321 -14.696449,17.84911 -18.347836,23.2834 -21.625493,26.15089 -29.891517,26.15089 -5.360604,0 -6.988268,-0.64448 -10.264716,-4.06435 z m 16.620153,-4.43217 c 1.040507,-0.82691 8.398315,-9.60348 16.350684,-19.50348 l 14.458853,-18 -6.832272,-0.40815 c -23.323657,-1.39334 -47.9446261,25.1205 -35.18023,37.8849 3.440949,3.44094 6.896485,3.44919 11.202965,0.0267 z M 119.837,146.71507 c 14.54215,-12.51604 17.11414,-23.6499 7.89014,-34.15546 -4.13777,-4.71266 -12.60883,-9.89294 -16.17744,-9.89294 -1.03942,0 -2.58954,0.84307 -3.44471,1.87349 -1.27521,1.53653 -0.3524,2.27288 5.13071,4.09408 9.12766,3.03172 13.43096,8.31986 13.43096,16.50472 0,6.76027 -1.62235,9.93188 -9.13633,17.86104 -5.14595,5.43029 -7.45651,6.18621 -8.7339,2.85737 -0.51048,-1.33027 0.69924,-3.87547 3.19068,-6.71306 4.65383,-5.30042 4.94444,-7.2213 1.55638,-10.28745 -2.36446,-2.1398 -18.677078,-8.32292 -19.358957,-7.33779 -0.183092,0.26451 -3.402422,4.40683 -7.154067,9.20514 l -6.821172,8.72421 6.872639,2.44095 c 3.779952,1.34252 10.48286,4.75403 14.895347,7.58113 4.41249,2.8271 8.15731,5.15278 8.32181,5.16818 0.16451,0.0154 4.45656,-3.55023 9.53791,-7.92361 z m 397.44415,19.23112 c -5.02634,-5.18587 -7.25528,-5.65291 -10.96328,-2.29722 -2.4363,2.20483 -2.65104,2.18942 -4.48745,-0.32203 -1.78307,-2.4385 -1.46391,-3.04126 4.2266,-7.9823 L 512.21233,150 511.77282,130.39621 c -0.47175,-21.04172 -1.34071,-23.9377 -6.26076,-20.86508 -2.36996,1.48007 -3.12876,1.42362 -4.91826,-0.36587 -1.93238,-1.93238 -1.32856,-2.8266 6.95994,-10.307272 4.99173,-4.505226 9.79336,-8.191319 10.67027,-8.191319 2.7623,0 7.30461,7.823489 8.22479,14.166041 l 0.88451,6.09667 11.33333,-10.11311 c 6.23333,-5.562211 12.21223,-9.967167 13.28644,-9.788793 2.93114,0.486722 7.70469,8.334432 8.71805,14.332463 l 0.89507,5.29783 11.68724,-9.99555 c 6.42799,-5.497554 12.35471,-9.995551 13.17049,-9.995551 0.81579,0 3.53334,1.8 6.039,4 5.2889,4.643719 5.83229,4.749428 9.11992,1.77416 2.30445,-2.085497 2.57845,-2.06448 4.34557,0.333333 1.72794,2.344642 1.32302,3.053311 -4.83025,8.453788 l -6.71629,5.89461 0.59609,18.77205 c 0.60601,19.08482 1.51756,24.07861 4.19406,22.9766 0.82203,-0.33846 2.49859,-1.01948 3.72568,-1.51337 1.45787,-0.58678 2.68987,-0.0407 3.5549,1.57558 1.1241,2.10041 -0.10048,3.62582 -8.11731,10.11136 -9.09327,7.35636 -9.53585,7.55206 -12.01173,5.31142 -5.15586,-4.66599 -5.64822,-7.34096 -6.3236,-34.3562 -0.49828,-19.93125 -1.08313,-26.66666 -2.3155,-26.66666 -0.90686,0 -4.95686,2.63965 -9,5.8659 l -7.35116,5.86591 v 16.20076 c 0,17.56301 1.16607,21.17208 5.55678,17.19854 1.9503,-1.765 2.76795,-1.85479 4.41821,-0.4852 3.5291,2.9289 3.12066,3.50334 -10.73108,15.09254 l -4.08942,3.42145 -7.91058,-7.08924 c -7.65282,-6.85825 -7.83455,-7.17382 -5.57725,-9.68494 2.00287,-2.22807 2.33334,-5.42454 2.33334,-22.5692 0,-25.96719 -0.56525,-26.87584 -11,-17.68309 l -7.66667,6.75414 v 15.62288 c 0,16.61353 1.02534,19.8705 5.39617,17.14087 1.81107,-1.13102 2.90868,-1.05817 4.54739,0.30184 1.95761,1.62467 1.81152,2.15996 -1.5584,5.71021 -2.04517,2.15462 -5.87426,5.63758 -8.50909,7.73991 l -4.7906,3.82243 z m 113.25193,-0.0701 c -8.29109,-5.16192 -8.84752,-5.2748 -11.98868,-2.43209 -2.14657,1.94262 -2.46156,1.86891 -3.95736,-0.92602 -1.46759,-2.74221 -1.15468,-3.43163 3.22728,-7.11062 l 4.85243,-4.07398 -5e-5,-21 -6e-5,-21 h -4 c -3.31333,0 -4,-0.53963 -4,-3.1434 0,-2.86688 0.7176,-3.21839 8.1578,-3.99605 8.24037,-0.86129 22.52576,-6.334442 25.31944,-9.700622 0.83377,-1.00463 2.31299,-1.826599 3.28716,-1.826599 0.97416,0 6.61425,5.980324 12.53352,13.289611 l 10.76231,13.28961 -18.03012,12.06729 c -17.96292,12.02232 -18.03011,12.08651 -18.03011,17.22371 0,4.00924 0.73114,5.63549 3.28642,7.30977 4.56511,2.99117 5.16567,2.85114 14.26064,-3.32513 7.39872,-5.02438 8.24443,-5.30146 10.20303,-3.34286 2.65495,2.65495 2.87569,2.44418 -14.55032,13.89365 l -14.13356,9.28621 z m 25.27368,-44.00037 C 656.93991,120.97063 643.44372,106 641.49467,106 c -1.82857,0 -2.22001,2.11696 -2.54225,13.74864 l -0.38088,13.74864 8.38088,-5.62172 c 4.60948,-3.09195 8.59394,-5.79189 8.85434,-5.99988 z m 110.27797,46.73869 c -7.92878,-2.72578 -11.6771,-7.236 -12.41751,-14.94151 -0.81105,-8.44079 1.59066,-13.26496 11.80082,-23.70353 l 7.85495,-8.03068 -5.4373,-6.57989 c -9.51466,-11.51405 -11.52771,-18.189489 -6.78074,-22.485441 3.35481,-3.036059 10.30123,-2.800434 13.56168,0.460017 2.95662,2.956624 3.40052,6.804094 1.24885,10.824514 -1.38848,2.59441 -1.30459,2.59145 4.05502,-0.14282 3.01006,-1.53561 7.77786,-5.167204 10.59512,-8.070195 2.81726,-2.902991 5.6172,-5.278166 6.2221,-5.278166 0.60489,0 3.35981,2.206834 6.12204,4.904075 4.75454,4.642696 5.154,4.784826 7.49453,2.666667 3.16574,-2.864954 5.0774,-2.835469 6.21928,0.09593 0.6609,1.696649 -0.57352,3.616599 -4.52402,7.036349 l -5.43292,4.70303 0.0581,15.29697 c 0.0554,14.59584 1.31212,25.77829 3.09772,27.56388 0.45532,0.45533 1.93415,-0.17331 3.28628,-1.39698 2.30189,-2.08318 2.60427,-2.06368 4.74908,0.30631 2.20273,2.43398 1.90776,2.84402 -7.68366,10.68146 l -9.97432,8.15031 -2.76715,-3.51786 c -1.52194,-1.93483 -3.45439,-5.81165 -4.29434,-8.61515 l -1.52718,-5.09729 -3.65484,2.94448 c -2.01017,1.61947 -6.58447,5.43465 -10.16513,8.47818 -6.46588,5.49593 -6.54575,5.5215 -11.70643,3.74734 z m 19.5819,-19.39338 6.33333,-5.42847 v -17.27144 c 0,-14.07114 -0.36813,-17.4127 -1.98673,-18.03382 -2.20268,-0.84525 -14.00037,3.56493 -14.00827,5.23653 -0.003,0.58142 2.83155,4.08962 6.29844,7.79601 6.01602,6.43161 6.18698,6.82404 3.74935,8.60648 -2.24661,1.64276 -2.90045,1.54222 -5.43096,-0.83506 l -2.87686,-2.70267 -5.53915,6.00927 c -6.9052,7.49126 -7.35402,12.4591 -1.64172,18.17141 2.14359,2.14359 4.99359,3.89357 6.33334,3.88883 1.33974,-0.005 5.28589,-2.45142 8.76923,-5.43707 z m 247.00257,16.0008 c -6.9891,-4.89586 -7.841,-5.17803 -9.9288,-3.28857 -2.7957,2.53008 -4.6255,2.61517 -6.5433,0.30431 -1.1219,-1.35177 -0.2278,-2.96835 3.8367,-6.93726 l 5.2995,-5.17479 v -17.53044 c 0,-9.64174 -0.6693,-19.45029 -1.4873,-21.79677 -1.4375,-4.12362 -1.5739,-4.1879 -4.078,-1.92168 -2.578,2.33303 -6.4679,1.45504 -7.2595,-1.63851 -0.1742,-0.68094 3.9044,-4.79444 9.0636,-9.141095 10.5884,-8.920746 11.7097,-8.903114 16.5555,0.26032 l 2.8862,5.458045 4.2071,-5.858253 c 2.3139,-3.222038 4.8417,-6.250479 5.6174,-6.72987 0.7757,-0.479391 3.9834,2.04837 7.1282,5.617245 l 5.7179,6.488868 2.4911,-3.06109 c 2.2148,-2.721551 2.7743,-2.853612 5.0442,-1.190573 2.4679,1.808183 2.4057,2.075583 -1.8656,8.023333 -6.8798,9.57993 -13.7341,10.78958 -21.7087,3.83115 -2.1361,-1.86391 -2.5342,-1.81709 -4.2909,0.50467 -1.4684,1.9407 -1.9467,6.96781 -1.9788,20.80171 l -0.042,18.24255 4,2.84825 4,2.84825 4.1138,-2.92932 c 3.8015,-2.70687 4.2788,-2.76439 6.2857,-0.75746 2.6087,2.60862 2.4106,2.83159 -10.5757,11.90435 l -8.8429,6.17798 z m 60.6525,-0.017 c -6.8895,-4.92073 -7.3509,-5.05555 -10.4193,-3.04506 -2.9388,1.92558 -3.395,1.9159 -5.3898,-0.11438 -2.0217,-2.05765 -1.8178,-2.51036 2.8207,-6.261 l 5,-4.04297 v -21.20401 c 0,-17.95911 -0.3061,-21.204 -2,-21.204 -1.2445,0 -2,-1.25926 -2,-3.33334 0,-3.14486 0.4079,-3.33333 7.2145,-3.33333 9.0021,0 22.098,-3.984003 28.0707,-8.539563 2.4953,-1.903241 5.2129,-3.460438 6.0391,-3.460438 0.8263,0 4.2664,2.11055 7.6448,4.690112 l 6.1424,4.690109 3.1384,-2.948343 c 2.945,-2.766654 3.2771,-2.809654 5.389,-0.697761 2.1118,2.111892 1.9458,2.562649 -2.6942,7.314454 l -4.9447,5.06386 v 20.94379 c 0,17.7278 0.3071,20.94378 2,20.94378 1.2117,0 2,1.23784 2,3.14053 0,2.88599 -0.6867,3.20465 -8.4727,3.93171 -9.4757,0.88486 -20.083,4.50974 -27.4363,9.37591 l -4.8939,3.23865 z m 23.8126,-12.00186 4.199,-1.46376 V 130.78705 109.8349 l -3.8133,-2.81931 c -3.6993,-2.73497 -3.9984,-2.75276 -10,-0.59459 l -6.1867,2.22472 v 19.58054 19.58054 l 4.3333,3.41518 c 4.9193,3.87698 5.6612,4.00515 11.4677,1.98099 z m 54.5271,12.49381 c -7.5698,-4.70391 -7.7088,-4.73382 -10.4537,-2.2497 -2.7285,2.46919 -2.8183,2.46793 -4.6708,-0.0656 -1.7111,-2.34001 -1.4487,-3.03404 2.7871,-7.37185 l 4.6759,-4.78864 v -20.94378 c 0,-20.0549 -0.1131,-20.94378 -2.6666,-20.94378 -1.918,0 -2.6667,-0.88889 -2.6667,-3.16614 0,-3.02339 0.4959,-3.1959 11,-3.82663 6.05,-0.36327 12.9715,-1.53334 15.381,-2.600144 l 4.381,-1.939647 -15.3469,-17.233722 c -8.4408,-9.478547 -15.309,-17.533722 -15.2628,-17.900389 0.211,-1.672359 16.0495,-14.666667 17.877,-14.666667 3.5495,0 3.9873,4.139829 0.7,6.619465 l -3.0204,2.278241 19.7721,22.174737 19.7722,22.174736 3.1475,-2.956922 c 3.1016,-2.913792 3.1753,-2.918985 5.0494,-0.356011 1.728,2.363103 1.4743,3.038743 -2.7741,7.389553 l -4.676,4.78864 v 20.27711 20.27712 h 3.3333 c 2.6667,0 3.3334,0.66667 3.3334,3.33333 0,2.99308 -0.5377,3.33334 -5.2677,3.33334 -10.9927,0 -28.1282,5.6164 -34.7323,11.38399 -1.6828,1.46965 -3.2167,0.99059 -9.6719,-3.02062 z m 24.1396,-12.49381 4.1989,-1.46376 v -21.66292 c 0,-20.05045 -0.2007,-21.84458 -2.6968,-24.10355 -2.5845,-2.33896 -3.0011,-2.34473 -10,-0.13851 l -7.3032,2.30211 v 20.4676 20.4676 l 4.3334,2.77514 c 5.0318,3.22249 5.8401,3.31808 11.4677,1.35629 z m 53.3987,12.67315 c -8.2911,-5.16192 -8.8475,-5.2748 -11.9887,-2.43209 -2.1465,1.94262 -2.4615,1.86891 -3.9573,-0.92602 -1.4676,-2.74221 -1.1547,-3.43163 3.2273,-7.11062 l 4.8524,-4.07398 -10e-5,-21 v -21 h -4 c -3.3134,0 -4,-0.53963 -4,-3.1434 0,-2.86688 0.7176,-3.21839 8.1578,-3.99605 8.2403,-0.86129 22.5257,-6.334442 25.3194,-9.700622 0.8338,-1.00463 2.313,-1.826599 3.2872,-1.826599 0.9741,0 6.6142,5.980324 12.5335,13.289611 l 10.7623,13.28961 -18.0301,12.06729 c -17.9629,12.02232 -18.0301,12.08651 -18.0301,17.22371 0,4.00924 0.7311,5.63549 3.2864,7.30977 4.5651,2.99117 5.1657,2.85114 14.2606,-3.32513 7.3988,-5.02438 8.2445,-5.30146 10.2031,-3.34286 2.6549,2.65495 2.8757,2.44418 -14.5504,13.89365 l -14.1335,9.28621 z m 25.2737,-44.00037 C 1275.6065,120.97063 1262.1104,106 1260.1613,106 c -1.8286,0 -2.22,2.11696 -2.5422,13.74864 l -0.3809,13.74864 8.3809,-5.62172 c 4.6094,-3.09195 8.5939,-5.79189 8.8543,-5.99988 z m 35.5291,43.34611 c -6.989,-4.89586 -7.8409,-5.17803 -9.9288,-3.28857 -2.7957,2.53008 -4.6255,2.61517 -6.5433,0.30431 -1.1219,-1.35177 -0.2278,-2.96835 3.8367,-6.93726 l 5.2995,-5.17479 v -17.53044 c 0,-9.64174 -0.6693,-19.45029 -1.4872,-21.79677 -1.4375,-4.12362 -1.574,-4.1879 -4.0781,-1.92168 -2.578,2.33303 -6.4679,1.45504 -7.2594,-1.63851 -0.1743,-0.68094 3.9043,-4.79444 9.0635,-9.141095 10.5884,-8.920746 11.7097,-8.903114 16.5555,0.26032 l 2.8863,5.458045 4.207,-5.858253 c 2.3139,-3.222038 4.8418,-6.250479 5.6174,-6.72987 0.7757,-0.479391 3.9834,2.04837 7.1282,5.617245 l 5.7179,6.488868 2.4911,-3.06109 c 2.2148,-2.721551 2.7743,-2.853612 5.0442,-1.190573 2.4679,1.808183 2.4057,2.075583 -1.8656,8.023333 -6.8798,9.57993 -13.7341,10.78958 -21.7087,3.83115 -2.1361,-1.86391 -2.5341,-1.81709 -4.2909,0.50467 -1.4684,1.9407 -1.9466,6.96781 -1.9788,20.80171 l -0.042,18.24255 4,2.84825 4,2.84825 4.1139,-2.92932 c 3.8014,-2.70687 4.2787,-2.76439 6.2857,-0.75746 2.6086,2.60862 2.4105,2.83159 -10.5758,11.90435 l -8.8429,6.17798 z m 46.4751,3.47157 c -2.137,-1.56264 -1.3565,-3.06281 9.1224,-17.53443 l 11.4593,-15.82559 -9.1964,-0.39175 -9.1963,-0.39175 v -12.60825 c 0,-11.86061 -0.1636,-12.60825 -2.7594,-12.60825 -2.0962,0 -2.657,-0.71817 -2.3333,-2.98807 0.3509,-2.46134 1.5489,-3.14787 6.7959,-3.89468 6.4106,-0.91244 16.3668,-5.851789 19.5664,-9.707073 2.2469,-2.707451 3.7694,-2.621234 10.4156,0.589819 7.0278,3.395481 11.061,3.370042 15.4693,-0.09757 3.5777,-2.814191 7.5775,-3.044901 8.4293,-0.486198 0.2593,0.778927 -4.5794,8.278922 -10.7526,16.666662 l -11.224,15.25044 9.8631,0.38942 9.863,0.38942 v 12.61058 c 0,11.72169 0.188,12.61058 2.6667,12.61058 1.9556,0 2.6667,0.88889 2.6667,3.33333 0,3.02809 -0.519,3.33602 -5.6667,3.36262 -6.2835,0.0325 -15.2071,3.62007 -22.1205,8.89316 l -4.5297,3.45497 -5.8772,-2.85537 c -7.6658,-3.72429 -12.5878,-3.62342 -16.8706,0.34572 -2.9345,2.71963 -3.8055,2.94407 -5.791,1.49226 z m 30.3768,-16.73944 c 2.4634,0.58964 5.5289,1.50542 6.8122,2.03507 2.1021,0.86756 2.3333,-0.042 2.3333,-9.17967 v -10.14265 h -5.2554 c -4.8852,0 -5.6995,0.58703 -11.5605,8.33333 -3.4678,4.58334 -6.8358,9.03454 -7.4845,9.89156 -0.8415,1.11172 0.5191,1.04704 4.7483,-0.22575 3.8197,-1.14956 7.5204,-1.40272 10.4066,-0.71189 z m 4.4296,-36.72757 c 5.0538,-6.71463 6.6288,-9.58343 4.6925,-8.54713 -2.8617,1.53154 -11.5863,1.20635 -18.9766,-0.7073 l -3.6666,-0.94946 v 10.15544 10.15544 h 5.1718 c 4.8829,0 5.5966,-0.56447 12.7789,-10.10699 z m 47.7203,49.81724 -5.4282,-5.42817 -3.6387,2.86222 c -3.4391,2.70522 -3.7378,2.73405 -5.4444,0.52563 -1.6015,-2.07254 -1.1148,-2.9764 4.3072,-7.99805 l 6.1129,-5.66145 -0.6045,-49.671885 c -0.3324,-27.319536 -1.0362,-50.939256 -1.564,-52.488266 -0.7366,-2.161821 -0.3349,-2.979754 1.7284,-3.519322 2.956,-0.773011 4.1936,1.173413 4.1936,6.59544 0,2.993909 0.4893,2.654208 4.3333,-3.008661 8.2814,-12.199728 13.19,-11.577941 8.885,1.125498 -2.2714,6.70233 -2.5653,10.760145 -2.2489,31.050105 l 0.3639,23.340201 8,-5.792673 c 4.4,-3.185969 8.6701,-6.194544 9.4891,-6.685722 0.875,-0.524766 5.1364,3.762558 10.3334,10.396315 4.8643,6.20915 8.8442,11.55686 8.8442,11.88379 0,0.32694 -3.5734,3.10103 -7.9409,6.16465 l -7.9409,5.57022 3.7182,4.84827 c 2.045,2.66655 4.836,7.54827 6.2021,10.84827 3.9938,9.64706 7.2162,13.72511 9.408,11.90609 2.2058,-1.8307 5.8868,-0.7194 5.8868,1.77727 0,2.08018 -15.8509,15.64998 -18.2808,15.64998 -2.0012,0 -5.8196,-7.31117 -9.0525,-17.33334 -2.7744,-8.6006 -6.7234,-16.79901 -8.6719,-18.00325 -0.7572,-0.46797 -3.4658,0.44026 -6.0191,2.01828 -4.1263,2.55023 -4.6423,3.50097 -4.6423,8.55374 0,6.95538 3.7839,11.57135 6.6524,8.1151 1.2953,-1.56082 2.1365,-1.68899 3.5245,-0.53705 3.0858,2.56101 2.0906,4.2717 -6.6452,11.4224 l -8.4325,6.90255 z m 21.9956,-42.09466 c 4.5834,-3.20197 8.3143,-6.22538 8.291,-6.71868 -0.042,-0.8944 -0.6153,-1.69807 -6.2917,-8.82452 l -3.0008,-3.76732 -5.3326,3.69546 -5.3325,3.69547 v 9.89735 c 0,7.57656 0.3908,9.65662 1.6666,8.87069 0.9167,-0.56467 5.4167,-3.64647 10,-6.84845 z m -1289.15699,41.68006 -6.15709,-4.62338 -3.61533,2.84382 c -3.39226,2.66835 -3.75279,2.70484 -5.84292,0.59141 -2.0843,-2.10755 -1.86311,-2.59389 3.43909,-7.56145 l 5.66667,-5.30904 v -20.61851 -20.6185 h -4.66667 c -4.01225,0 -4.66667,-0.44033 -4.66667,-3.13995 0,-2.92036 0.64457,-3.19399 9.21637,-3.91262 9.87963,-0.82828 21.15322,-4.93588 24.89521,-9.070728 3.48317,-3.848865 4.94955,-3.100118 8.13678,4.154718 1.60326,3.64938 3.49992,6.63524 4.2148,6.63524 0.71489,0 2.75463,-1.72897 4.53276,-3.84216 2.42552,-2.882574 3.77388,-3.539462 5.39873,-2.630148 1.67892,0.93957 2.63498,0.304646 4.25313,-2.824501 1.61369,-3.120527 2.9873,-4.036522 6.05313,-4.036522 h 3.96576 l 0.0753,-13.666667 0.0753,-13.666667 9.38846,-7.666667 c 9.82762,-8.02529 12.31467,-9.041441 13.64487,-5.57498 0.51218,1.334701 -0.64254,3.307739 -3.19068,5.451858 l -3.99334,3.360172 v 15.881475 15.881476 h 4.69526 c 3.71437,0 5.01253,-0.696361 6.21402,-3.333334 1.59123,-3.492369 3.21945,-4.055897 6.22165,-2.153312 1.44435,0.915329 1.05134,2.679873 -2,8.979583 -3.49928,7.224504 -4.24273,7.933834 -9.46426,9.029834 l -5.66667,1.18945 v 24.39853 c 0,16.23954 0.48827,24.7003 1.46009,25.30092 0.80305,0.49632 3.14829,-0.34574 5.21163,-1.87124 3.20893,-2.37247 3.98022,-2.49809 5.33263,-0.86853 0.8696,1.04781 1.37437,2.45562 1.12171,3.12846 -0.65792,1.75204 -16.60827,14.86631 -18.08129,14.86631 -0.67729,0 -3.64931,-2.06962 -6.6045,-4.59914 -5.04837,-4.32123 -5.55004,-4.47518 -8.30184,-2.54775 -3.22028,2.25558 -6.80509,1.59458 -6.80509,-1.25478 0,-1.00028 2.4,-3.74739 5.33333,-6.10468 l 5.33334,-4.28598 V 127.27051 104 h -3.36192 c -2.29216,0 -3.84519,1.06067 -4.88069,3.33334 -1.73112,3.79939 -2.92397,4.12474 -5.37149,1.46508 -1.45377,-1.57977 -2.3529,-1.18082 -5.82303,2.58365 -7.41937,8.04874 -15.50301,7.49319 -20.76615,-1.42716 -4.82588,-8.17926 -5.77171,-5.46896 -6.10297,17.48814 l -0.30625,21.22362 5.01604,3.44738 5.01605,3.44738 8.53982,-5.7368 c 6.45786,-4.3382 8.96656,-5.38265 10.29021,-4.28413 0.96271,0.79898 1.73568,2.12922 1.71773,2.9561 -0.0381,1.75302 -28.47656,20.85625 -30.95886,20.79625 -0.92134,-0.0223 -4.44585,-2.12101 -7.83224,-4.66386 z m 104.16777,0.0487 c -4.3118,-4.44865 -4.65344,-4.56324 -7.68413,-2.57746 -2.52004,1.6512 -3.5734,1.74479 -5.12687,0.45552 -1.07534,-0.89246 -1.78519,-2.04973 -1.57743,-2.57172 C 262.26119,158.37869 279.23869,144 280.49524,144 c 0.64985,0 3.56186,2.15048 6.47114,4.77884 l 5.2896,4.77884 2.95794,-2.77884 c 3.64435,-3.42368 4.33368,-3.44881 6.06121,-0.22089 1.17789,2.2009 0.0572,3.68979 -8.02904,10.66667 -5.1689,4.45979 -10.14613,8.10872 -11.0605,8.10872 -0.91437,0 -3.69308,-2.09504 -6.17491,-4.65564 z m 136.28546,2.02714 c -26.29507,-9.46216 -42.63327,-40.33459 -37.89039,-71.597173 3.20874,-21.150379 17.63531,-42.36444 37.91048,-55.746843 6.36379,-4.200343 7.9906,-4.766011 9.67835,-3.365307 1.75167,1.453762 0.64381,3.133319 -8.11171,12.297623 -5.96697,6.245551 -11.42283,13.445423 -13.25626,17.493717 -7.95112,17.556468 -7.68501,59.302743 0.49974,78.396983 6.11505,14.26584 16.8678,20.85862 32.5403,19.95125 2.18208,-0.12633 2.33333,-3.67861 2.33333,-54.80175 0,-30.066671 -0.48,-54.666672 -1.06667,-54.666672 -3.87811,0 -4.26666,3.940276 -4.26666,43.267707 v 40.067705 l -8.91841,7.03294 c -7.9403,6.26163 -9.13845,6.81289 -10.9249,5.02644 -1.78644,-1.78644 -1.68332,-2.3505 0.94024,-5.14316 2.9106,-3.09818 2.94238,-3.58244 2.59157,-39.48242 l -0.35517,-36.345768 -3.46324,2.725037 c -3.45606,2.719387 -6.53676,1.878594 -6.53676,-1.784029 0,-0.789551 7.2,-6.704594 16,-13.144539 15.75785,-11.531783 16,-11.78853 16,-16.964453 0,-4.676831 0.35679,-5.25546 3.2406,-5.25546 2.2402,0 3.37213,0.844299 3.66666,2.734942 0.4144,2.660035 0.55185,2.641776 5.01844,-0.666667 2.52581,-1.870885 5.57356,-3.401609 6.77279,-3.401609 3.45221,0 18.62123,14.555633 24.25846,23.277526 7.62893,11.803444 10.86312,23.833114 10.94825,40.722476 0.0823,16.329724 -1.74556,24.890984 -8.25556,38.666664 -6.35453,13.44669 -19.10977,26.38128 -30.03299,30.45527 -10.24689,3.82175 -29.06165,3.94117 -39.32049,0.24957 z m 41.8443,-8.72158 c 7.59652,-5.79414 18.08512,-26.66428 16.05687,-31.94982 -0.77717,-2.02527 -8.83746,-4.68523 -14.19733,-4.68523 -1.83334,0 -5.58334,0.62485 -8.33334,1.38857 l -5,1.38857 v 19.90432 19.90433 l 3.66076,-1.39181 c 2.01341,-0.7655 5.52928,-2.81702 7.81304,-4.55893 z m 18.60149,-46.79076 c 1.19399,-9.55638 -1.88238,-25.423878 -4.79349,-24.724172 -6.01093,1.444767 -17.58637,1.686365 -21.15716,0.441583 l -4.12464,-1.437857 v 15.804556 15.80456 l 10.33334,-0.66729 c 5.74542,-0.37101 11.8133,-0.0566 13.66666,0.70824 5.05651,2.0866 5.07612,2.06746 6.07529,-5.92962 z m -5.32995,-31.493395 c 1.43359,-1.433586 -10.7546,-18.728404 -16.31333,-23.148312 -8.85197,-7.038461 -8.43201,-7.440897 -8.43201,8.080152 0,13.377825 0.15802,14.188846 3,15.397288 3.24821,1.381173 20.29303,1.123191 21.74534,-0.329128 z M 1507.8832,166.29332 c -5.5272,-3.72477 -7.8378,-8.04209 -7.8636,-14.69286 -0.027,-6.97028 2.9176,-12.22792 12.1151,-21.63113 l 7.8549,-8.03068 -5.4373,-6.57989 c -9.5146,-11.51405 -11.5277,-18.189489 -6.7807,-22.485441 3.3548,-3.036059 10.3012,-2.800434 13.5617,0.460017 2.9566,2.956624 3.4005,6.804094 1.2488,10.824514 -1.3885,2.59441 -1.3046,2.59145 4.055,-0.14282 3.0101,-1.53561 7.7779,-5.167204 10.5951,-8.070195 2.8173,-2.902991 5.6173,-5.278166 6.2221,-5.278166 0.6049,0 3.3599,2.206834 6.1221,4.904075 4.7545,4.642696 5.154,4.784826 7.4945,2.666667 3.1658,-2.864954 5.0774,-2.835469 6.2193,0.09593 0.6609,1.696659 -0.5735,3.616609 -4.524,7.036359 l -5.4329,4.70303 0.058,15.29697 c 0.055,14.59584 1.3122,25.77828 3.0977,27.56388 0.4554,0.45533 1.9342,-0.17332 3.2863,-1.39699 2.3022,-2.08345 2.605,-2.06293 4.7642,0.32298 2.2224,2.45576 1.9609,2.82646 -7.2395,10.26 -11.0793,8.9517 -12.411,8.80768 -16.703,-1.80639 l -2.7362,-6.76676 -9.2638,7.87593 c -10.3914,8.83467 -13.6834,9.60878 -20.7138,4.87097 z m 24.4501,-17.07233 6.3333,-5.42847 v -17.27144 c 0,-14.07114 -0.3681,-17.4127 -1.9867,-18.03382 -2.2027,-0.84525 -14.0004,3.56493 -14.0083,5.23653 0,0.58142 2.8315,4.08962 6.2984,7.79601 6.016,6.43161 6.187,6.82404 3.7494,8.60648 -2.2466,1.64276 -2.9005,1.54222 -5.431,-0.83506 l -2.8768,-2.70267 -5.5392,6.00927 c -6.9052,7.49126 -7.354,12.4591 -1.6417,18.17141 2.1436,2.14359 4.9936,3.89357 6.3333,3.88883 1.3398,-0.005 5.2859,-2.45142 8.7693,-5.43707 z m 54.9807,15.62979 c -6.1525,-4.1556 -6.8562,-4.3386 -9.6487,-2.50894 -2.4643,1.61473 -3.3863,1.66303 -5.0701,0.2656 -1.804,-1.49722 -1.3809,-2.39792 3.4286,-7.29843 l 5.4866,-5.59042 -0.5575,-49.859295 c -0.3066,-27.422611 -0.7965,-51.059003 -1.0886,-52.525315 -0.3889,-1.952196 0.2722,-2.780273 2.469,-3.092735 2.5412,-0.361464 3,0.187074 3,3.587332 0,4.855547 2.1338,6.617249 3.3549,2.769844 1.2016,-3.785786 8.5097,-11.931753 10.7045,-11.931753 3.2843,0 3.3977,2.531482 0.3713,8.287605 -2.7684,5.265312 -3.0442,7.8376 -3.5232,32.866188 l -0.5198,27.153789 10.8023,-8.936876 10.8022,-8.936881 6.8572,5.033662 c 6.848,5.026919 6.8626,5.030564 10.8868,2.720985 3.2204,-1.848264 4.2498,-1.96552 5.1263,-0.583908 1.8696,2.947333 1.2947,4.269888 -3.5293,8.118948 l -4.6666,3.72351 v 21.27649 c 0,20.3876 0.1114,21.27649 2.6667,21.27649 1.9555,0 2.6667,0.88889 2.6667,3.33333 0,3.13773 -0.4162,3.33334 -7.0914,3.33334 -9.071,0 -18.5455,2.83055 -26.6216,7.95331 -3.5088,2.22568 -7.1199,4.04669 -8.0247,4.04669 -0.9048,0 -4.6315,-2.01715 -8.2816,-4.48256 z m 25.1898,-12.202 4.8295,-2.0179 v -20.39803 -20.39802 l -3.7668,-2.7849 -3.7668,-2.78489 -6.8999,5.26151 -6.8999,5.26151 0.017,16.93931 0.018,16.9393 4.3158,2.91713 c 5.2489,3.54776 6.0441,3.61745 12.1531,1.06498 z m -700.1234,-5.86841 c -1.27962,-2.04898 -1.20375,-2.87713 0.38431,-4.19511 1.5966,-1.32505 1.90689,-4.88709 1.60696,-18.44704 -0.36287,-16.40496 -0.44486,-16.81525 -3.4451,-17.24057 -4.5009,-0.63805 -6.92661,2.0899 -6.92661,7.78963 0,4.69019 -1.57341,6.64606 -5.34645,6.64606 -1.98555,0 -3.0319,-14.14688 -1.40986,-19.06171 2.04588,-6.199111 5.46147,-9.018371 11.98615,-9.893515 l 5.43682,-0.72923 0.0389,-12.824442 0.0389,-12.824441 8.06082,-5.852699 c 7.40661,-5.377705 8.23486,-5.678653 10.20534,-3.708171 1.97049,1.970482 1.9624,2.345787 -0.0997,4.624353 -1.98924,2.19809 -2.24421,6.659219 -2.24421,39.266815 v 36.78699 L 923,143.2154 c -4.21666,3.35397 -7.97233,6.10258 -8.34593,6.10803 -0.3736,0.005 -1.39673,-1.13893 -2.27362,-2.54306 z M 887.97059,69.738961 c -2.18385,-3.443573 -4.03421,-7.793573 -4.11192,-9.666667 -0.46273,-11.154109 1.47283,-16.11978 8.78624,-22.541035 4.21224,-3.698397 5.72156,-4.197925 12.68398,-4.197925 4.64758,0 12.04175,1.314359 17.95104,3.190908 9.99978,3.175522 10.07212,3.17873 15.0019,0.665386 4.45899,-2.273325 5.15826,-2.320595 7.00256,-0.473365 1.84344,1.846373 1.51409,2.517485 -3.28444,6.692589 -12.13095,10.554914 -19.2846,12.105805 -34.36064,7.449291 -6.35775,-1.963711 -9.9243,-2.430336 -12.13924,-1.58822 -5.88019,2.235648 -6.54511,10.502341 -1.44878,18.012209 2.64996,3.904937 3.04866,5.392454 1.83674,6.85273 -2.45535,2.958521 -3.68712,2.274622 -7.91744,-4.395901 z"
       id="path1" />
  </g>
</svg>
