<?xml version="1.0" encoding="UTF-8" standalone="no"?>
<!-- Created with Inkscape (http://www.inkscape.org/) -->

<svg
   version="1.1"
   id="svg1"
   width="780.79999"
   height="202.24001"
   viewBox="0 0 780.79999 202.24001"
   xmlns="http://www.w3.org/2000/svg"
   xmlns:svg="http://www.w3.org/2000/svg">
  <defs
     id="defs1" />
  <g
     id="g1">
    <path
       style="fill:#000000"
       d="M 28.336477,201.27268 C 15.387456,198.45904 3.7056349,186.66201 0.93865984,173.60466 c -1.36170483,-6.42589 -1.36170483,-138.543428 0,-144.969312 C 3.7387412,15.421767 15.421767,3.7387414 28.635347,0.93865988 c 6.520202,-1.38169194 717.009093,-1.38169194 723.529293,0 13.21358,2.80008152 24.89661,14.48310712 27.69669,27.69668812 1.3617,6.425884 1.3617,138.543422 0,144.969312 -2.80008,13.21358 -14.48311,24.8966 -27.69669,27.69669 -6.30643,1.33639 -717.675511,1.30822 -723.828163,-0.0287 z m 721.872013,-8.07284 c 10.52678,-2.23531 19.31602,-11.02455 21.55133,-21.55134 1.01529,-4.78132 1.01529,-136.275677 0,-141.056998 C 769.52451,20.064717 760.73527,11.275475 750.20849,9.0401678 745.35235,8.0089929 35.447636,8.0089929 30.591501,9.0401678 20.064716,11.275475 11.275475,20.064717 9.0401674,30.591502 c -1.0152883,4.781321 -1.0152883,136.275678 0,141.056998 2.1790526,10.26186 10.4855866,18.82842 20.7198326,21.36844 4.428562,1.09912 715.28386,1.27958 720.44849,0.1829 z M 336.31044,165.6 c -0.15916,-0.44 -1.83802,-5.12 -3.73082,-10.4 l -3.44143,-9.6 -22.1691,-0.16829 C 285.50097,145.26874 284.8,145.2241 284.8,144.01986 c 0,-0.68395 2.05828,-6.44022 4.57396,-12.79171 L 293.94793,119.68 h 13.34603 c 7.34032,0 13.34603,-0.25337 13.34603,-0.56305 0,-0.30968 -1.61342,-4.98968 -3.58539,-10.4 -5.27055,-14.460378 -8.5746,-24.112318 -8.5746,-25.04848 0,-1.8157 15.98415,-41.120487 16.79147,-41.28998 0.5853,-0.12288 2.24161,3.494922 5.12761,11.2 5.94479,15.871506 40.51117,107.62478 41.37389,109.82318 0.38886,0.99091 0.70702,2.07091 0.70702,2.4 0,0.98113 -35.81393,0.78145 -36.16955,-0.20167 z m 93.55622,0.37334 c -0.23467,-0.23467 -0.42667,-1.24267 -0.42667,-2.24 0,-1.6332 0.21474,-1.81334 2.16164,-1.81334 3.79448,0 3.8964,-0.44486 4.1276,-18.01709 L 435.93848,128 h 2.51075 2.51076 l -0.0153,15.2 c -0.008,8.36 -0.28132,16.352 -0.60649,17.76 -0.8374,3.62592 -3.16745,5.44 -6.98726,5.44 -1.6817,0 -3.24964,-0.192 -3.48431,-0.42666 z m 139.33912,-0.49595 c -0.75526,-1.96817 0.0647,-3.23392 2.30459,-3.55739 3.61185,-0.5216 3.82955,-1.58284 3.84019,-18.72 l 0.009,-15.2 h 2.56 2.56 v 16.02056 c 0,17.19258 -0.31806,19.26482 -3.2748,21.3358 -1.91559,1.34173 -7.49857,1.4262 -7.99941,0.12103 z M 43.519999,98.251183 V 35.840001 h 31.212864 c 29.602307,0 31.459637,0.06838 35.995447,1.325321 8.49117,2.353026 15.78058,7.186594 19.92736,13.213738 l 1.99861,2.904881 -10.12486,31.230064 -10.12487,31.230065 -2.60228,0.77447 c -1.58784,0.47256 -8.77377,0.88779 -18.433715,1.06517 l -15.831443,0.29071 -0.168557,21.22279 -0.168556,21.22279 -15.84,0.17118 -15.84,0.17119 z m 54.079999,-7.81589 c 4.672462,-2.465313 6.892722,-5.965086 7.714552,-12.160389 0.60639,-4.57118 -1.0098,-9.725751 -4.04902,-12.913674 -3.387099,-3.55283 -7.265223,-4.561228 -17.541692,-4.561228 h -8.203839 v 15.748385 15.748386 l 9.76,-0.255378 C 93.664818,91.821999 95.400702,91.5957 97.599998,90.435293 Z M 143.87642,159.52 C 142.2352,157.60914 127.36,131.5033 127.36,130.53383 c 0,-0.79446 6.08367,-19.95607 13.99946,-44.093828 1.3203,-4.026 2.73137,-7.430276 3.13571,-7.565057 0.4212,-0.140401 4.47634,7.222314 9.49522,17.24 l 8.76004,17.485055 1.78658,-5.44 c 2.28207,-6.9487 16.9257,-52.005177 20.59239,-63.359999 l 2.79002,-8.64 h 13.6936 13.69361 l 4.6744,15.36 c 2.57091,8.448001 5.23646,17.232001 5.92344,19.520001 3.17448,10.572738 12.21755,40.101568 12.54381,40.959998 0.2879,0.7575 27.55218,-61.731013 32.04251,-73.439999 l 1.0431,-2.72 h 17.58153 c 13.80339,0 17.5151,0.171913 17.27244,0.8 -0.64723,1.675213 -27.03536,67.184289 -30.87184,76.639999 -2.21368,5.456 -7.25391,17.984 -11.20051,27.84 -3.9466,9.856 -7.47128,18.28471 -7.83262,18.73046 -0.50619,0.62444 -4.47196,0.77133 -17.2786,0.64 l -16.62162,-0.17046 -6.7059,-21.44 c -3.68824,-11.792 -8.43604,-27.056 -10.55067,-33.92 -2.11463,-6.863997 -4.04745,-12.694971 -4.29516,-12.957717 -0.24771,-0.262746 -5.56014,15.073257 -11.80541,34.079997 L 177.87051,160.64 h -16.51606 c -14.93646,0 -16.60807,-0.10711 -17.47803,-1.12 z m 310.17184,-4.26022 c -2.55507,-1.11292 -5.19351,-4.30339 -6.0201,-7.27965 -1.28372,-4.62222 -0.83714,-10.457 1.09183,-14.26536 2.48044,-4.89712 5.35306,-6.46828 11.36283,-6.21483 3.39755,0.14329 4.96659,0.53354 6.48109,1.61196 2.67978,1.90817 4.25157,5.44475 4.33079,9.74441 l 0.0653,3.54369 -9.4206,0.177 -9.4206,0.177 0.37877,2.063 c 1.0571,5.75768 4.89089,8.20039 10.78243,6.87005 7.29043,-1.64622 6.83703,-1.69155 6.60648,0.66047 -0.17163,1.75093 -0.58453,2.24219 -2.44648,2.91077 -2.97279,1.06747 -11.34236,1.06837 -13.79173,0.001 z m 11.84994,-18.71639 c -0.78348,-3.47385 -2.65322,-5.02339 -6.06144,-5.02339 -3.30638,0 -5.70185,1.90121 -6.67624,5.2987 l -0.59118,2.0613 h 6.92793 6.92792 z m 59.06179,18.34363 c -1.63381,-0.99616 -2.08,-1.69809 -2.08,-3.27222 0,-2.24504 0.33598,-2.26181 5.67825,-0.28344 3.62422,1.34214 6.91068,0.45247 7.53628,-2.04014 0.69527,-2.77018 -0.19078,-3.60884 -7.04772,-6.6708 -3.54773,-1.58423 -5.52081,-4.25636 -5.52442,-7.48167 -0.005,-4.81351 3.7034,-7.78582 9.69433,-7.76931 4.67397,0.0129 6.56941,1.05965 6.83032,3.7721 0.17682,1.83829 0.0367,2.09704 -0.96,1.77328 -5.86492,-1.90502 -6.67275,-2.00456 -8.40459,-1.03567 -1.94452,1.08787 -2.55496,3.37216 -1.30398,4.8795 0.4602,0.55451 2.88946,1.94366 5.39836,3.087 5.29998,2.41528 6.66317,4.02098 6.66317,7.84854 0,5.81229 -3.24304,8.4676 -10.33672,8.46342 -2.92101,-0.002 -4.64801,-0.35891 -6.14328,-1.27059 z m 68.64,0.26652 c -4.91153,-2.55444 -7.13301,-7.55152 -6.55549,-14.74619 0.699,-8.70808 4.94173,-13.04735 12.75707,-13.04735 7.13567,0 10.91372,3.81016 11.02085,11.11451 l 0.0576,3.92549 -9.12,0.17758 -9.12,0.17757 v 2.08002 c 0,2.08414 1.31719,4.57952 3.17063,6.00664 1.73371,1.33493 5.34923,1.54616 9.1806,0.53634 4.96253,-1.30795 5.03996,-1.29021 4.80932,1.10185 -0.16705,1.73256 -0.57472,2.2076 -2.44055,2.84388 -3.32219,1.13292 -11.44757,1.03234 -13.76,-0.17034 z M 605.78603,137.12 c -1.5454,-6.28555 -8.25688,-7.88543 -11.68451,-2.78535 -2.80213,4.16936 -2.3614,4.54535 5.32785,4.54535 h 6.78938 z m 84.45396,18.03354 c -4.91154,-2.55444 -7.13301,-7.55152 -6.55549,-14.74619 0.699,-8.70808 4.94173,-13.04735 12.75707,-13.04735 7.13566,0 10.91371,3.81016 11.02085,11.11451 l 0.0576,3.92549 -9.12,0.17758 -9.12,0.17757 v 2.08002 c 0,2.08414 1.31719,4.57952 3.17063,6.00664 1.73371,1.33493 5.34923,1.54616 9.18059,0.53634 4.96254,-1.30795 5.03997,-1.29021 4.80933,1.10185 -0.16705,1.73256 -0.57472,2.2076 -2.44055,2.84388 -3.32219,1.13292 -11.44757,1.03234 -13.76,-0.17034 z M 702.42603,137.12 c -1.5454,-6.28555 -8.25688,-7.88543 -11.68452,-2.78535 -2.80212,4.16936 -2.36139,4.54535 5.32786,4.54535 h 6.78938 z M 404.13,154.71262 c -0.1704,-0.44406 -0.23337,-9.30007 -0.13992,-19.68 l 0.16991,-18.87262 2.72,-0.1968 2.72,-0.19679 v 7.37751 7.37751 l 2.32931,-1.58071 c 2.7662,-1.8772 7.53553,-2.13855 10.55277,-0.57827 3.55889,1.84037 4.36789,4.93281 4.38387,16.75755 l 0.014,10.4 h -2.56 -2.56 v -9.18449 c 0,-5.05514 -0.31801,-10.09675 -0.70731,-11.21351 -1.33614,-3.83285 -5.31285,-4.40978 -9.06687,-1.3154 l -2.38582,1.96659 v 9.87341 9.8734 h -2.58008 c -1.48627,0 -2.71144,-0.34229 -2.88991,-0.80738 z M 478.07999,141.76 V 128 h 2.56 c 2.3485,0 2.56,0.14141 2.56,1.71156 v 1.71157 l 1.44,-1.31159 c 2.23109,-2.03213 4.01105,-2.75154 6.80781,-2.75154 3.21907,0 5.51587,1.02192 6.84048,3.04352 l 1.02624,1.56624 1.70274,-1.58668 c 2.54919,-2.37544 4.17696,-3.02308 7.59825,-3.02308 3.80326,0 5.69024,1.22473 7.27968,4.7248 1.00939,2.22276 1.19889,4.26294 1.21075,13.0352 l 0.014,10.4 h -2.56 -2.56 v -9.18449 c 0,-5.05514 -0.31801,-10.09675 -0.70732,-11.21351 -1.32136,-3.79048 -4.77091,-4.32894 -8.42686,-1.3154 l -2.38582,1.96659 v 9.87341 9.8734 h -2.49161 -2.49162 l -0.24912,-9.76 c -0.30212,-11.83685 -1.06361,-13.88733 -5.1658,-13.9102 -1.13046,-0.006 -2.67279,0.81652 -4.32,2.30468 l -2.56185,2.31447 v 9.52553 9.52552 h -2.56 -2.56 z m 69.76,-6.08 v -19.84 h 2.56 2.56 l 0.006,11.68 0.006,11.68 5.16721,-5.6 c 4.77919,-5.17947 5.35264,-5.6 7.63641,-5.6 1.35806,0 2.65392,0.29889 2.87969,0.66419 0.22577,0.3653 -1.90036,3.03168 -4.72474,5.92529 l -5.13523,5.26109 5.40251,6.94635 c 2.97138,3.82049 5.40251,7.34611 5.40251,7.83472 0,0.61917 -0.82839,0.88836 -2.73377,0.88836 -2.73053,0 -2.74019,-0.008 -8.16,-7.13698 l -5.42623,-7.13699 -0.18096,7.13699 -0.18096,7.13698 h -2.53904 -2.53904 z m 70.04591,19.02195 c -0.17265,-0.44993 -0.23561,-6.56993 -0.13991,-13.6 l 0.174,-12.78195 2.4,-0.19863 c 2.24093,-0.18547 2.4,-0.0817 2.4,1.56555 v 1.76418 l 2.15042,-2.08427 c 1.92129,-1.86219 2.48389,-2.0631 5.28,-1.88555 l 3.12958,0.19872 v 2.56 c 0,1.408 -0.288,2.52493 -0.64,2.48206 -0.352,-0.0429 -1.46378,-0.27233 -2.47063,-0.50992 -1.57469,-0.37158 -2.17868,-0.0661 -4.32,2.18489 l -2.48937,2.61687 v 9.25305 9.25305 h -2.58009 c -1.50404,0 -2.711,-0.34117 -2.894,-0.81805 z m 20.48,0 c -0.17265,-0.44993 -0.23562,-6.56993 -0.13991,-13.6 l 0.174,-12.78195 2.4,-0.19863 c 2.23668,-0.18512 2.4,-0.0795 2.4,1.55156 v 1.7502 l 1.44,-1.31159 c 2.24167,-2.04177 4.01374,-2.75154 6.86971,-2.75154 3.03768,0 6.07368,1.37519 7.0457,3.19142 0.64447,1.2042 0.79838,1.16274 3.58799,-0.96662 2.47847,-1.89186 3.42116,-2.2248 6.29931,-2.2248 2.50296,0 3.84416,0.36144 5.14854,1.38746 3.04948,2.39873 3.52875,4.59788 3.52875,16.19199 V 155.52 h -2.51693 -2.51693 l -0.20307,-10.49472 c -0.17899,-9.25048 -0.34762,-10.65423 -1.42226,-11.84 -1.95265,-2.15458 -4.85947,-1.77329 -7.63414,1.00139 l -2.34667,2.34667 v 9.49333 9.49333 h -2.56 -2.56 l -0.004,-8.8 c -0.002,-4.84 -0.30256,-9.87661 -0.668,-11.19247 -1.15771,-4.16861 -4.92567,-4.91518 -8.58616,-1.70123 l -2.26227,1.9863 v 9.8537 9.8537 h -2.58009 c -1.50404,0 -2.711,-0.34117 -2.894,-0.81805 z M 714.23999,141.76 V 128 h 2.56 c 2.3485,0 2.56,0.14141 2.56,1.71156 v 1.71157 l 1.44,-1.31159 c 2.28265,-2.07909 4.02461,-2.75154 7.12781,-2.75154 3.83784,0 5.88516,1.01988 7.60791,3.7899 1.30209,2.09363 1.44254,3.23724 1.63715,13.3301 l 0.21286,11.04 h -2.55543 -2.55542 l -0.21744,-9.87467 c -0.19451,-8.83322 -0.35915,-10.06509 -1.56102,-11.68 -2.13003,-2.86206 -5.25936,-2.80596 -8.53458,0.15301 l -2.60184,2.35061 v 9.52553 9.52552 h -2.56 -2.56 z M 435.45218,121.97407 c -0.1912,-0.49827 -0.25416,-1.72227 -0.13991,-2.72 0.18675,-1.63088 0.47694,-1.83367 2.87375,-2.00823 2.98061,-0.21707 3.82672,0.8868 3.05045,3.97974 -0.35829,1.42752 -0.75959,1.65442 -2.92594,1.65442 -1.57476,0 -2.6403,-0.33772 -2.85835,-0.90593 z m 139.52,0 c -0.1912,-0.49827 -0.25417,-1.72227 -0.13992,-2.72 0.19371,-1.69165 0.40149,-1.81407 3.07897,-1.81407 3.11033,0 3.71007,0.7955 2.93324,3.89062 -0.33057,1.31713 -0.7738,1.54938 -2.95676,1.54938 -1.62407,0 -2.69567,-0.33297 -2.91553,-0.90593 z M 459.15123,94.787039 c -4.32411,-1.963927 -5.3664,-7.24723 -2.11295,-10.710369 1.25153,-1.332198 1.27171,-1.520363 0.31015,-2.893172 -1.32263,-1.888327 -1.31862,-5.604399 0.008,-7.498562 0.82769,-1.181699 0.89217,-1.796743 0.32,-3.052518 -1.13711,-2.495681 -0.86716,-7.337563 0.53754,-9.641345 2.23906,-3.672176 4.18103,-4.200456 13.53854,-3.682933 l 8.24737,0.456126 v 1.837868 c 0,1.629472 -0.22547,1.837868 -1.98847,1.837868 -1.64959,0 -1.90684,0.190875 -1.50949,1.12 1.62042,3.788952 0.74931,7.835317 -2.31953,10.774435 -1.83702,1.759371 -2.26418,1.867842 -7.50414,1.905562 -4.55247,0.03277 -5.5917,0.224099 -5.7525,1.059061 -0.36861,1.914035 2.40302,3.060942 7.39709,3.060942 7.32927,0 10.86838,2.112161 11.44479,6.830326 0.43209,3.536808 -1.34529,6.595615 -4.86336,8.369675 -3.75641,1.894249 -11.82627,2.010552 -15.75315,0.227036 z m 12.23339,-3.55608 c 2.56906,-1.073424 3.864,-3.586312 2.83699,-5.505304 -0.72554,-1.35568 -1.73906,-1.655219 -7.16507,-2.117582 -3.457,-0.29458 -3.75456,-0.203906 -5.28,1.608983 -0.8891,1.056635 -1.61655,2.163503 -1.61655,2.459707 0,3.673668 6.22283,5.644081 11.22463,3.554196 z m -2.018,-20.273978 c 1.99862,-0.910631 3.20064,-3.734214 2.65237,-6.230485 -0.52383,-2.384997 -1.5346,-3.249415 -4.32996,-3.70304 -5.01246,-0.81341 -7.93488,5.84202 -4.03735,9.194535 1.89033,1.625995 3.35306,1.815137 5.71494,0.73899 z m 17.94461,23.830058 c -4.32411,-1.963927 -5.3664,-7.24723 -2.11295,-10.710369 1.25153,-1.332198 1.27171,-1.520363 0.31015,-2.893172 -1.32263,-1.888327 -1.31862,-5.604399 0.008,-7.498562 0.82769,-1.181699 0.89217,-1.796743 0.32,-3.052518 -1.13711,-2.495681 -0.86716,-7.337563 0.53754,-9.641345 2.23906,-3.672176 4.18103,-4.200456 13.53854,-3.682933 l 8.24737,0.456126 v 1.837868 c 0,1.629472 -0.22547,1.837868 -1.98847,1.837868 -1.64959,0 -1.90684,0.190875 -1.50949,1.12 1.62042,3.788952 0.74931,7.835317 -2.31953,10.774435 -1.83702,1.759371 -2.26418,1.867842 -7.50414,1.905562 -4.55247,0.03277 -5.5917,0.224099 -5.7525,1.059061 -0.36861,1.914035 2.40302,3.060942 7.39709,3.060942 7.32927,0 10.86838,2.112161 11.44479,6.830326 0.43209,3.536808 -1.34529,6.595615 -4.86336,8.369675 -3.75641,1.894249 -11.82627,2.010552 -15.75315,0.227036 z m 12.23339,-3.55608 c 2.56906,-1.073424 3.864,-3.586312 2.83699,-5.505304 -0.72554,-1.35568 -1.73906,-1.655219 -7.16507,-2.117582 -3.45701,-0.29458 -3.75456,-0.203906 -5.28,1.608983 -0.8891,1.056635 -1.61655,2.163503 -1.61655,2.459707 0,3.673668 6.22283,5.644081 11.22463,3.554196 z m -2.018,-20.273978 c 1.99862,-0.910631 3.20064,-3.734214 2.65237,-6.230485 -0.52383,-2.384997 -1.5346,-3.249415 -4.32997,-3.70304 -5.01245,-0.81341 -7.93487,5.84202 -4.03734,9.194535 1.89033,1.625995 3.35306,1.815137 5.71494,0.73899 z m 89.64306,24.234814 C 586.9991,94.74728 586.93614,86.17928 587.02977,76.151794 l 0.17022,-18.231792 2.4,-0.198634 c 2.23668,-0.185117 2.4,-0.07953 2.4,1.551561 v 1.750195 l 1.44,-1.311585 c 2.34191,-2.13306 4.04174,-2.751537 7.56238,-2.751537 4.12606,0 7.05007,1.672431 8.68949,4.970088 0.93033,1.871354 1.18813,3.848003 1.18813,9.109912 0,7.706563 -1.1077,10.777387 -4.79032,13.28 -2.85269,1.938621 -8.24848,1.990123 -11.29414,0.107802 l -2.15554,-1.332198 v 6.452198 6.452199 h -2.58009 c -1.48765,0 -2.7114,-0.342204 -2.89022,-0.808208 z m 16.00675,-15.430049 c 3.62954,-3.629544 3.78982,-13.05337 0.28545,-16.783603 -1.75377,-1.866801 -4.64815,-2.013534 -7.15189,-0.362572 -3.16059,2.084088 -3.62781,3.234835 -3.64965,8.988862 -0.0202,5.332398 -0.007,5.377302 2.26522,7.52 2.85147,2.689284 5.95888,2.929306 8.25087,0.637313 z m -170.21644,4.547728 c -3.88615,-2.169978 -5.7528,-6.392659 -5.72436,-12.949472 0.0419,-9.651188 4.33933,-14.4 13.03138,-14.4 2.7873,0 4.2272,0.356296 5.81949,1.44 3.64451,2.48043 4.72715,4.526459 5.00595,9.460459 l 0.25199,4.459541 h -9.35223 -9.35222 v 1.825355 c 0,2.792383 2.5314,6.043413 5.4634,7.016547 2.17135,0.720674 3.16858,0.689127 6.92552,-0.219084 5.02657,-1.215134 6.2376,-0.762522 5.0331,1.881076 -1.45292,3.188804 -12.35567,4.135879 -17.10202,1.485578 z m 13.12,-16.85275 c 0,-3.285904 -3.27216,-6.656722 -6.46189,-6.656722 -3.18591,0 -6.97811,3.814661 -6.97811,7.019444 0,0.412134 2.52726,0.660556 6.72,0.660556 5.73136,0 6.72,-0.150544 6.72,-1.023278 z m 84.73456,16.809326 c -2.10421,-1.809962 -2.69983,-5.163839 -2.76784,-15.585499 l -0.0467,-7.15945 -2.08,-0.20055 c -1.73852,-0.167625 -2.08,-0.463226 -2.08,-1.800549 0,-1.332029 0.34298,-1.633188 2.04788,-1.798154 1.98651,-0.192216 2.05363,-0.297697 2.24,-3.52 l 0.19212,-3.321847 h 2.56 2.56 l 0.19345,3.36 0.19344,3.360001 h 3.41808 c 3.52503,0 4.58288,0.804601 3.78647,2.88 -0.26444,0.689122 -1.34228,0.96 -3.81991,0.96 h -3.45153 v 8.837677 c 0,10.500319 0.35242,11.381117 4.33969,10.846311 2.79986,-0.37554 3.68076,0.404393 2.88691,2.556012 -0.63053,1.708942 -1.49609,2.059544 -5.11091,2.0702 -2.56949,0.0076 -3.71867,-0.329417 -5.06113,-1.484152 z m 88.93142,0.261092 c -4.0229,-2.453016 -4.55094,-9.740629 -0.93961,-12.967638 2.36138,-2.110076 5.63416,-3.071239 10.47363,-3.075933 3.47887,-0.0034 3.68,-0.08937 3.68,-1.573455 0,-2.81958 -1.36117,-4.803053 -3.79694,-5.532826 -1.90579,-0.570988 -2.99497,-0.458867 -6.27439,0.645892 -5.11518,1.723178 -5.28867,1.702867 -5.28867,-0.619168 0,-1.710402 0.37134,-2.120246 2.95753,-3.264245 3.98689,-1.763591 12.16416,-1.523034 14.34558,0.422016 2.72044,2.42566 3.17689,4.72132 3.17689,15.977661 v 10.580556 h -2.24 c -1.82655,0 -2.24,-0.240513 -2.24,-1.303072 0,-1.253603 -0.0907,-1.241454 -2.38857,0.32 -3.04537,2.069387 -8.41209,2.252036 -11.46545,0.390212 z m 8.93609,-3.327116 c 3.13176,-1.612952 4.27793,-3.250415 4.27793,-6.111585 0,-2.699832 -0.0515,-2.768061 -2.08,-2.753171 -3.11069,0.02283 -6.93381,1.044257 -8.03672,2.147167 -1.49457,1.49457 -1.23531,4.867549 0.48096,6.257298 1.66784,1.350538 3.3489,1.494957 5.35783,0.460291 z m -223.81359,2.907632 c -0.21366,-0.556789 -0.38848,-8.908789 -0.38848,-18.56 V 48.000001 h 2.88 2.88 v 16.320001 16.32 h 7.04 7.04 v 2.24 2.24 h -9.53152 c -8.10112,0 -9.58983,-0.151924 -9.92,-1.012344 z m 141.97743,0.19429 c -0.17265,-0.44993 -0.23561,-6.569931 -0.13991,-13.600001 l 0.174,-12.781945 2.72,-0.196799 2.72,-0.196799 v 13.796799 13.796799 h -2.58008 c -1.50405,0 -2.71101,-0.341175 -2.89401,-0.818054 z M 560.63999,65.280002 V 45.440001 h 2.56 2.56 v 19.840001 19.84 h -2.56 -2.56 z m 62.97919,-12.227193 c -0.8173,-0.903114 -1.21919,-2.293023 -1.21919,-4.216546 0,-3.63951 1.79416,-5.316262 5.6885,-5.316262 4.74373,0 6.9534,2.990997 5.48861,7.429353 -0.87808,2.660604 -2.23254,3.450647 -5.91584,3.450647 -2.05702,0 -3.15366,-0.3655 -4.04208,-1.347192 z m 6.78081,-4.092808 c 0,-1.883084 -1.80407,-3.033923 -3.37653,-2.153931 -1.4248,0.797362 -1.4248,3.510501 0,4.307863 1.57246,0.879992 3.37653,-0.270847 3.37653,-2.153932 z m -83.58781,2.614063 c -0.1912,-0.498266 -0.25417,-1.722266 -0.13992,-2.72 0.18125,-1.582825 0.50832,-1.839064 2.56587,-2.010201 2.86904,-0.238632 4.10247,1.351735 3.09779,3.994234 -0.50859,1.337704 -1.04591,1.641904 -2.90017,1.641904 -1.37229,0 -2.41396,-0.359695 -2.62357,-0.905937 z"
       id="path1" />
  </g>
</svg>
