<?xml version="1.0" encoding="UTF-8" standalone="no"?>
<!-- Created with Inkscape (http://www.inkscape.org/) -->

<svg
   version="1.1"
   id="svg1"
   width="885"
   height="876"
   viewBox="0 0 885 876"
   xmlns="http://www.w3.org/2000/svg"
   xmlns:svg="http://www.w3.org/2000/svg">
  <defs
     id="defs1" />
  <g
     id="g1">
    <path
       style="fill:#000000"
       d="M 11.631677,874.48882 C 10.735906,873.59305 9.8096903,871.87911 9.5734194,870.68007 8.7003168,866.24921 6.8596037,807.19596 6.2871224,765.25 5.7616143,726.74579 5.8655672,722 7.2344802,722 8.7644737,722 12,727.55332 12,730.17934 c 0,0.7574 1.577082,4.6679 3.504626,8.69001 7.973487,16.63788 20.408054,23.71061 54.495374,30.99676 19.50478,4.16914 27.791724,4.42795 119.73061,3.73934 47.97684,-0.35934 87.97096,-0.93744 88.87582,-1.28467 1.47026,-0.56418 1.59798,-2.69188 1.20113,-20.00859 -0.35599,-15.53392 -0.74419,-19.6774 -1.95721,-20.89041 -0.83222,-0.83223 -9.80151,-4.34986 -19.93174,-7.81696 C 206.27971,705.93126 171.781,687.82746 135,659.10115 66.840596,605.86801 24.01339,534.29323 9.5838872,449.5 3.0975882,411.38405 2.3028718,361.73771 7.590947,325 16.667872,261.94011 41.017154,205.2762 79.997769,156.5 93.257054,139.90874 122.81222,110.33035 139.20245,97.248796 152.30507,86.791181 174.47092,71.747286 188.5,63.790689 232.68228,38.732695 286.34035,20.881086 347,11.059004 393.04517,3.6033169 430.7965,0.53726908 467.26968,1.2910693 506.08246,2.0932228 529.41956,6.2116871 582.5,21.626585 c 44.28248,12.859914 70.66517,22.620807 98.24153,36.346753 37.27666,18.554203 65.71562,39.377419 95.8127,70.154772 65.71464,67.19994 96.581,147.47298 96.84906,251.87189 0.0962,37.46221 -2.90563,63.73921 -10.85254,95 -20.92257,82.30312 -73.29169,156.26447 -143.79369,203.08105 -30.18836,20.04646 -59.21855,33.30017 -97.25706,44.40265 -8.8,2.5685 -16.7787,5.3722 -17.73044,6.23044 -2.13191,1.92246 -2.45023,3.61761 -4.60735,24.53586 l -1.72729,16.75 55.53254,-0.0238 c 68.29655,-0.0293 125.60012,-1.41479 143.23938,-3.46325 17.5702,-2.04043 33.22361,-5.6646 41.53804,-9.61713 14.01405,-6.66201 25.49475,-21.64759 30.3415,-39.6043 C 870.25185,709.26866 872.31357,705 874.02305,705 874.65109,705 875,734.4645 875,787.5 V 870 l -14.25,0.004 c -20.07577,0.006 -205.14216,1.77527 -266,2.54259 L 544,873.18647 543.9844,869.843 c -0.0158,-3.38371 13.56691,-177.87423 14.60524,-187.6261 0.36388,-3.41749 1.33003,-6.13342 2.73643,-7.69232 1.3854,-1.53562 9.15786,-5.13907 21.42751,-9.93418 58.48342,-22.8555 71.06816,-29.9759 87.6479,-49.5904 16.99967,-20.11131 32.23726,-49.89348 40.94622,-80.03021 4.31313,-14.92529 6.53386,-24.86361 10.60718,-47.46979 1.68474,-9.35 3.71103,-19.42942 4.50286,-22.39872 0.79184,-2.96929 1.07612,-4.99429 0.63174,-4.5 -0.44438,0.4943 -7.80588,9.49098 -16.35888,19.99262 -17.00028,20.87349 -33.16589,38.96142 -42.15816,47.17134 -27.93967,25.50889 -55.90933,40.73199 -86.80202,47.24387 -21.40481,4.51193 -49.06436,4.68353 -65.20747,0.40454 -12.91242,-3.42264 -24.78651,-11.85349 -31.55905,-22.40758 -3.67132,-5.72125 -8.35229,-18.20559 -10.03712,-26.76938 C 474.29194,522.80651 473.55276,520 473.32418,520 c -0.22859,0 -6.35754,5.30567 -13.6199,11.79037 C 442.28145,547.34757 438.10601,550.70046 428,557.249 405.17989,572.0361 385.73631,578 360.34737,578 340.38466,578 327.88835,575.04481 309.5,565.97534 c -24.33365,-12.0018 -47.14463,-35.36313 -60.46328,-61.92205 -10.15205,-20.24437 -18.29053,-46.42377 -21.63781,-69.60328 -2.19945,-15.23093 -2.24477,-44.55287 -0.0927,-59.98407 6.85204,-49.13228 29.2838,-104.08886 57.51125,-140.89936 19.17096,-25.00024 45.48538,-46.76679 72.68257,-60.121 23.07795,-11.3316 37.47193,-14.80527 61.5,-14.84169 10.84136,-0.0164 18.14851,0.50359 24.31199,1.73017 31.01707,6.17265 57.47097,24.14706 79.75992,54.19382 3.9196,5.28384 7.25374,9.46414 7.40919,9.28956 0.15545,-0.17459 2.89404,-12.35494 6.08575,-27.06744 l 5.8031,-26.75 h 34.88242 c 32.76124,0 34.84943,0.10642 34.34016,1.75 -0.50358,1.62523 -10.36415,49.63641 -48.72659,237.25 -13.32871,65.18479 -14.96901,74.27266 -14.49896,80.32969 1.39392,17.96187 15.09146,26.52947 33.70152,21.07977 2.98732,-0.8748 9.97976,-3.77292 15.53873,-6.44028 C 625.34243,490.66102 651.05878,467.36113 670.41811,438 698.95964,394.7128 713,350.37801 713,303.54053 713,266.73938 705.46734,235.48272 688.64986,202.5 675.93578,177.56492 659.54312,154.75483 639.51371,134.1279 618.28319,112.26403 600.27434,99.131495 573.5,85.98893 545.34703,72.169641 517.22404,64.399825 483.14405,61.025395 467.66617,59.492853 430.19645,59.765246 413.22156,61.533709 342.57903,68.893327 279.08382,99.9273 230.99982,150.59657 186.92949,197.03637 154.06254,271.17313 144.8152,345 c -1.9621,15.66459 -1.65517,59.24366 0.52824,75 0.95269,6.875 3.10012,22.38527 4.77206,34.46728 4.84928,35.04241 10.73324,55.23162 23.57756,80.8999 28.3514,56.65789 70.01626,94.96724 129.58183,119.14588 13.53714,5.49494 17.23418,8.69131 18.15308,15.69474 0.30974,2.36071 2.35014,27.6922 4.53422,56.2922 2.18408,28.6 5.61981,72.78489 7.63496,98.18865 2.01515,25.40376 3.41417,46.83947 3.10893,47.63491 -0.79884,2.08175 -26.80278,2.52775 -187.3259,3.21293 -124.921023,0.5332 -136.253822,0.44701 -137.748503,-1.04767 z M 389.79216,517.41992 c 20.75086,-4.25385 40.09117,-16.15163 60.21982,-37.04606 24.95498,-25.90438 40.33756,-54.18678 50.0276,-91.98068 12.46838,-48.63023 11.0384,-92.22957 -4.03067,-122.89318 -9.09737,-18.51196 -21.2435,-31.30183 -37.50891,-39.49686 -27.36124,-13.78548 -58.60289,-10.20765 -85.01051,9.73548 -36.96281,27.91446 -63.33946,78.5723 -73.03165,140.26138 -2.57909,16.41547 -3.10303,49.46167 -0.98503,62.12826 4.71492,28.19725 18.15428,53.09473 35.9143,66.5341 16.3864,12.39991 34.93371,16.74911 54.40505,12.75756 z"
       id="path1" />
  </g>
</svg>
